<svg width="36" height="36" viewBox="0 0 36 36" fill="none" xmlns="http://www.w3.org/2000/svg">
<g clip-path="url(#clip0_587_439)">
<path d="M34.5 6.00001V15M34.5 15H25.5M34.5 15L27.555 8.46001C25.4859 6.38961 22.8 5.04778 19.9019 4.63672C17.0039 4.22566 14.0508 4.76763 11.4875 6.18096C8.92431 7.5943 6.88987 9.80243 5.6908 12.4726C4.49172 15.1428 4.19296 18.1303 4.83955 20.9851C5.48614 23.8398 7.04304 26.4071 9.27564 28.3C11.5082 30.1929 14.2956 31.3089 17.2176 31.4799C20.1397 31.6508 23.0381 30.8674 25.4762 29.2478C27.9143 27.6281 29.76 25.2599 30.735 22.5" stroke="black" stroke-opacity="0.9" stroke-width="4" stroke-linecap="round" stroke-linejoin="round"/>
</g>
<defs>
<clipPath id="clip0_587_439">
<rect width="36" height="36" fill="white"/>
</clipPath>
</defs>
</svg>
