<svg width="36" height="36" viewBox="0 0 36 36" fill="none" xmlns="http://www.w3.org/2000/svg">
<g clip-path="url(#clip0_587_442)">
<path d="M1.5 6V15M1.5 15H10.5M1.5 15L8.46 8.46C10.5314 6.39213 13.2187 5.05345 16.117 4.64567C19.0154 4.23789 21.9677 4.7831 24.5293 6.19915C27.0908 7.61519 29.1227 9.82536 30.3189 12.4966C31.5151 15.1679 31.8108 18.1556 31.1613 21.0095C30.5119 23.8635 28.9525 26.429 26.7182 28.3196C24.4839 30.2103 21.6956 31.3235 18.7736 31.4917C15.8515 31.6599 12.954 30.8739 10.5175 29.2521C8.081 27.6303 6.23759 25.2606 5.265 22.5" stroke="#1E1E1E" stroke-width="4" stroke-linecap="round" stroke-linejoin="round"/>
</g>
<defs>
<clipPath id="clip0_587_442">
<rect width="36" height="36" fill="white"/>
</clipPath>
</defs>
</svg>
