<svg width="20" height="20" viewBox="0 0 20 20" fill="none" xmlns="http://www.w3.org/2000/svg">
<path d="M10 6.75C11.7949 6.75 13.25 8.20507 13.25 10C13.25 11.7949 11.7949 13.25 10 13.25C8.20507 13.25 6.75 11.7949 6.75 10C6.75 8.20507 8.20507 6.75 10 6.75ZM2.75 8C3.85457 8 4.75 8.89543 4.75 10C4.75 11.1046 3.85457 12 2.75 12C1.64543 12 0.75 11.1046 0.75 10C0.75 8.89543 1.64543 8 2.75 8ZM17.25 8C18.3546 8 19.25 8.89543 19.25 10C19.25 11.1046 18.3546 12 17.25 12C16.1454 12 15.25 11.1046 15.25 10C15.25 8.89543 16.1454 8 17.25 8Z" fill="#191919"/>
</svg>
