<svg width="36" height="36" viewBox="0 0 36 36" fill="none" xmlns="http://www.w3.org/2000/svg">
<path d="M31.2601 6.91499C30.4939 6.1485 29.5843 5.54046 28.5831 5.12562C27.5819 4.71077 26.5088 4.49725 25.4251 4.49725C24.3413 4.49725 23.2682 4.71077 22.267 5.12562C21.2658 5.54046 20.3562 6.1485 19.5901 6.91499L18.0001 8.50499L16.4101 6.91499C14.8625 5.36745 12.7636 4.49806 10.5751 4.49806C8.38651 4.49806 6.28759 5.36745 4.74006 6.91499C3.19252 8.46253 2.32312 10.5614 2.32312 12.75C2.32312 14.9385 3.19252 17.0375 4.74006 18.585L18.0001 31.845L31.2601 18.585C32.0265 17.8189 32.6346 16.9092 33.0494 15.908C33.4643 14.9068 33.6778 13.8337 33.6778 12.75C33.6778 11.6663 33.4643 10.5931 33.0494 9.59196C32.6346 8.59077 32.0265 7.68113 31.2601 6.91499Z" stroke="#FA5151" stroke-width="4" stroke-linecap="round" stroke-linejoin="round"/>
</svg>
