<svg width="36" height="36" viewBox="0 0 36 36" fill="none" xmlns="http://www.w3.org/2000/svg">
<path d="M31.26 6.91499C30.4939 6.1485 29.5842 5.54046 28.583 5.12562C27.5818 4.71077 26.5087 4.49725 25.425 4.49725C24.3413 4.49725 23.2682 4.71077 22.267 5.12562C21.2658 5.54046 20.3561 6.1485 19.59 6.91499L18 8.50499L16.41 6.91499C14.8625 5.36745 12.7635 4.49806 10.575 4.49806C8.38645 4.49806 6.28753 5.36745 4.74 6.91499C3.19246 8.46253 2.32306 10.5614 2.32306 12.75C2.32306 14.9385 3.19246 17.0375 4.74 18.585L18 31.845L31.26 18.585C32.0265 17.8189 32.6345 16.9092 33.0494 15.908C33.4642 14.9068 33.6777 13.8337 33.6777 12.75C33.6777 11.6663 33.4642 10.5931 33.0494 9.59196C32.6345 8.59077 32.0265 7.68113 31.26 6.91499Z" stroke="black" stroke-opacity="0.3" stroke-width="4" stroke-linecap="round" stroke-linejoin="round"/>
</svg>
