<svg width="48" height="48" viewBox="0 0 48 48" fill="none" xmlns="http://www.w3.org/2000/svg">
<path d="M4 32.2C5.92178 32.5919 7.68588 33.5404 9.07276 34.9272C10.4596 36.3141 11.4081 38.0782 11.8 40M4 24.1C8.06158 24.5517 11.8486 26.3721 14.7382 29.2618C17.6279 32.1514 19.4483 35.9384 19.9 40M4 16V12C4 10.9391 4.42143 9.92172 5.17157 9.17157C5.92172 8.42143 6.93913 8 8 8H40C41.0609 8 42.0783 8.42143 42.8284 9.17157C43.5786 9.92172 44 10.9391 44 12V36C44 37.0609 43.5786 38.0783 42.8284 38.8284C42.0783 39.5786 41.0609 40 40 40H28M4 40H4.02" stroke="#0884FF" stroke-width="4" stroke-linecap="round" stroke-linejoin="round"/>
</svg>
