<svg width="17" height="12" viewBox="0 0 17 12" fill="none" xmlns="http://www.w3.org/2000/svg">
<path d="M6.11523 8.91895C7.53496 7.69339 9.61439 7.69352 11.0342 8.91895C11.1056 8.98488 11.1474 9.07847 11.1494 9.17676C11.1514 9.275 11.1136 9.36963 11.0449 9.43848L8.82129 11.7285C8.75618 11.7958 8.6678 11.8339 8.5752 11.834C8.48248 11.834 8.3933 11.7958 8.32812 11.7285L6.10449 9.43848C6.03589 9.3696 5.998 9.27496 6 9.17676C6.00204 9.07847 6.04375 8.98483 6.11523 8.91895ZM3.10938 6.17871C6.16845 3.27412 10.9058 3.27412 13.9648 6.17871C14.0339 6.24682 14.0732 6.34049 14.0742 6.43848C14.0751 6.53636 14.0373 6.63075 13.9697 6.7002L12.6846 8.02539C12.5521 8.16068 12.338 8.16398 12.2021 8.03223C11.1977 7.10381 9.89123 6.58981 8.53613 6.58984C7.18182 6.59042 5.87596 7.10432 4.87207 8.03223C4.7362 8.16398 4.52209 8.16074 4.38965 8.02539L3.10449 6.7002C3.03673 6.63084 2.99917 6.53641 3 6.43848C3.00091 6.34051 3.04038 6.24681 3.10938 6.17871ZM0.107422 3.44238C4.79927 -1.14723 12.2007 -1.14716 16.8926 3.44238C16.9605 3.51057 16.9994 3.60393 17 3.70117C17.0005 3.79826 16.9625 3.89204 16.8955 3.96094L15.6094 5.28613C15.4768 5.42211 15.2616 5.42382 15.127 5.29004C13.3393 3.55527 10.9666 2.588 8.5 2.58789C6.03337 2.58801 3.66078 3.55527 1.87305 5.29004C1.7385 5.42393 1.52304 5.42228 1.39062 5.28613L0.103516 3.96094C0.036546 3.89201 -0.000499208 3.79823 0 3.70117C0.00062672 3.60393 0.0394563 3.51052 0.107422 3.44238Z" fill="black"/>
</svg>
