<svg width="36" height="36" viewBox="0 0 36 36" fill="none" xmlns="http://www.w3.org/2000/svg">
<path d="M13.1807 23.1978C12.4287 23.1978 11.772 23.0708 11.2104 22.8169C10.6489 22.5581 10.2046 22.2041 9.87744 21.7549C9.55029 21.3057 9.35986 20.7905 9.30615 20.2095L9.29883 20.1143H10.8809L10.8882 20.1948C10.9224 20.5122 11.0371 20.793 11.2324 21.0371C11.4277 21.2812 11.6914 21.4741 12.0234 21.6157C12.3604 21.7524 12.7461 21.8208 13.1807 21.8208C13.6152 21.8208 13.9937 21.7476 14.3159 21.6011C14.6382 21.4497 14.8896 21.2422 15.0703 20.9785C15.251 20.71 15.3413 20.4048 15.3413 20.063V20.0483C15.3413 19.4526 15.1387 18.9961 14.7334 18.6787C14.3281 18.3564 13.7739 18.1953 13.0708 18.1953H11.7891V16.9062H13.0195C13.4248 16.9062 13.7788 16.8354 14.0815 16.6938C14.3843 16.5474 14.6211 16.3472 14.792 16.0933C14.9629 15.8394 15.0483 15.5488 15.0483 15.2217V15.207C15.0483 14.8652 14.9751 14.5747 14.8286 14.3354C14.6821 14.0913 14.4673 13.9058 14.1841 13.7788C13.9058 13.647 13.5664 13.5811 13.166 13.5811C12.7754 13.5811 12.4287 13.647 12.126 13.7788C11.8232 13.9106 11.5815 14.0986 11.4009 14.3428C11.2202 14.582 11.1128 14.8701 11.0786 15.207L11.0713 15.2729H9.51855L9.52588 15.1997C9.58447 14.5991 9.77002 14.0791 10.0825 13.6396C10.3999 13.1953 10.8198 12.8511 11.3423 12.6069C11.8696 12.3579 12.4775 12.2334 13.166 12.2334C13.8691 12.2334 14.4819 12.3506 15.0044 12.585C15.5269 12.8193 15.9321 13.144 16.2202 13.5591C16.5083 13.9692 16.6523 14.4478 16.6523 14.9946V15.0093C16.6523 15.4487 16.5547 15.8369 16.3594 16.1738C16.1689 16.5059 15.9053 16.7842 15.5684 17.0088C15.2363 17.2285 14.8555 17.3823 14.4258 17.4702V17.5068C15.2021 17.5703 15.8271 17.8267 16.3008 18.2759C16.7744 18.7251 17.0112 19.3208 17.0112 20.063V20.0776C17.0112 20.6831 16.8477 21.2227 16.5205 21.6963C16.1934 22.165 15.7417 22.5337 15.1655 22.8022C14.5942 23.0659 13.9326 23.1978 13.1807 23.1978ZM22.7974 23.2563C21.9819 23.2563 21.2837 23.0317 20.7026 22.5825C20.1216 22.1333 19.6748 21.4961 19.3623 20.6709C19.0498 19.8408 18.8936 18.8569 18.8936 17.7192V17.7046C18.8936 16.5669 19.0498 15.5854 19.3623 14.7603C19.6748 13.9351 20.1216 13.2979 20.7026 12.8486C21.2837 12.3994 21.9819 12.1748 22.7974 12.1748C23.6128 12.1748 24.311 12.3994 24.8921 12.8486C25.4731 13.2979 25.9199 13.9351 26.2324 14.7603C26.5498 15.5854 26.7085 16.5669 26.7085 17.7046V17.7192C26.7085 18.8569 26.5498 19.8408 26.2324 20.6709C25.9199 21.4961 25.4731 22.1333 24.8921 22.5825C24.311 23.0317 23.6128 23.2563 22.7974 23.2563ZM22.7974 21.8867C23.271 21.8867 23.6738 21.7183 24.0059 21.3813C24.3428 21.0444 24.5991 20.5659 24.7749 19.9458C24.9556 19.3208 25.0459 18.5786 25.0459 17.7192V17.7046C25.0459 16.8452 24.9556 16.1055 24.7749 15.4854C24.5991 14.8652 24.3428 14.3892 24.0059 14.0571C23.6738 13.7202 23.271 13.5518 22.7974 13.5518C22.3286 13.5518 21.9258 13.7202 21.5889 14.0571C21.2568 14.3892 21.0005 14.8652 20.8198 15.4854C20.644 16.1055 20.5562 16.8452 20.5562 17.7046V17.7192C20.5562 18.5786 20.644 19.3208 20.8198 19.9458C21.0005 20.5659 21.2568 21.0444 21.5889 21.3813C21.9258 21.7183 22.3286 21.8867 22.7974 21.8867Z" fill="black"/>
<g clip-path="url(#clip0_635_437)">
<path d="M34.5 6.00001V15M34.5 15H25.5M34.5 15L27.555 8.46001C25.4859 6.38961 22.8 5.04778 19.9019 4.63672C17.0039 4.22566 14.0508 4.76763 11.4875 6.18096C8.92431 7.5943 6.88987 9.80243 5.6908 12.4726C4.49172 15.1428 4.19296 18.1303 4.83955 20.9851C5.48614 23.8398 7.04304 26.4071 9.27564 28.3C11.5082 30.1929 14.2956 31.3089 17.2176 31.4799C20.1397 31.6508 23.0381 30.8674 25.4762 29.2478C27.9143 27.6281 29.76 25.2599 30.735 22.5" stroke="black" stroke-opacity="0.9" stroke-width="4" stroke-linecap="round" stroke-linejoin="round"/>
</g>
<defs>
<clipPath id="clip0_635_437">
<rect width="36" height="36" fill="white"/>
</clipPath>
</defs>
</svg>
