<svg width="36" height="36" viewBox="0 0 36 36" fill="none" xmlns="http://www.w3.org/2000/svg">
<g clip-path="url(#clip0_635_441)">
<path d="M1.5 6V15M1.5 15H10.5M1.5 15L8.46 8.46C10.5314 6.39213 13.2187 5.05345 16.117 4.64567C19.0154 4.23789 21.9677 4.7831 24.5293 6.19915C27.0908 7.61519 29.1227 9.82536 30.3189 12.4966C31.5151 15.1679 31.8108 18.1556 31.1613 21.0095C30.5119 23.8635 28.9525 26.429 26.7182 28.3196C24.4839 30.2103 21.6956 31.3235 18.7736 31.4917C15.8515 31.6599 12.954 30.8739 10.5175 29.2521C8.081 27.6303 6.23759 25.2606 5.265 22.5" stroke="#1E1E1E" stroke-width="4" stroke-linecap="round" stroke-linejoin="round"/>
</g>
<path d="M13.8491 23V14.123H13.7319L11.0732 16.02V14.4087L13.8564 12.4312H15.4971V23H13.8491ZM22.1548 23.2563C21.4663 23.2563 20.856 23.1245 20.3237 22.8608C19.7915 22.5972 19.3667 22.2383 19.0493 21.7842C18.7319 21.3252 18.5464 20.8125 18.4927 20.2461L18.4854 20.1509H20.0308L20.0381 20.2095C20.0869 20.5171 20.2041 20.7979 20.3896 21.0518C20.5801 21.3057 20.8291 21.5059 21.1367 21.6523C21.4443 21.7988 21.7886 21.8721 22.1694 21.8721C22.604 21.8721 22.9873 21.7769 23.3193 21.5864C23.6514 21.3911 23.9102 21.125 24.0957 20.7881C24.2861 20.4512 24.3813 20.063 24.3813 19.6235V19.6089C24.3813 19.1743 24.2861 18.7886 24.0957 18.4517C23.9053 18.1147 23.6465 17.8535 23.3193 17.668C22.9922 17.4775 22.6138 17.3823 22.1841 17.3823C21.8667 17.3823 21.5713 17.4312 21.2979 17.5288C21.0293 17.6216 20.79 17.7632 20.5801 17.9536C20.4873 18.0415 20.3994 18.1367 20.3164 18.2393C20.2334 18.3369 20.1602 18.4468 20.0967 18.5688H18.6758L19.2031 12.4312H25.3555V13.8228H20.4995L20.1772 17.1919H20.2944C20.4458 16.9526 20.6338 16.75 20.8584 16.584C21.0879 16.418 21.3467 16.291 21.6348 16.2031C21.9229 16.1152 22.228 16.0713 22.5503 16.0713C23.2144 16.0713 23.8003 16.2227 24.3081 16.5254C24.8208 16.8281 25.2236 17.2432 25.5166 17.7705C25.8096 18.2979 25.9561 18.9009 25.9561 19.5796V19.5942C25.9561 20.312 25.7925 20.9468 25.4653 21.4985C25.1431 22.0503 24.6963 22.4824 24.125 22.7949C23.5586 23.1025 22.9019 23.2563 22.1548 23.2563Z" fill="black"/>
<defs>
<clipPath id="clip0_635_441">
<rect width="36" height="36" fill="white"/>
</clipPath>
</defs>
</svg>
