<svg width="375" height="812" viewBox="0 0 375 812" fill="none" xmlns="http://www.w3.org/2000/svg">
<rect width="375" height="812" fill="white"/>
<rect width="375" height="88" fill="white"/>
<rect opacity="0.7" x="285" y="51" width="83" height="30" rx="15" fill="white"/>
<rect x="285.175" y="51.175" width="82.65" height="29.65" rx="14.825" stroke="#DEDEDE" stroke-width="0.35"/>
<path d="M307 62.75C308.795 62.75 310.25 64.2051 310.25 66C310.25 67.7949 308.795 69.25 307 69.25C305.205 69.25 303.75 67.7949 303.75 66C303.75 64.2051 305.205 62.75 307 62.75ZM299.75 64C300.855 64 301.75 64.8954 301.75 66C301.75 67.1046 300.855 68 299.75 68C298.645 68 297.75 67.1046 297.75 66C297.75 64.8954 298.645 64 299.75 64ZM314.25 64C315.355 64 316.25 64.8954 316.25 66C316.25 67.1046 315.355 68 314.25 68C313.145 68 312.25 67.1046 312.25 66C312.25 64.8954 313.145 64 314.25 64Z" fill="#191919"/>
<path d="M347 57.5C351.694 57.5 355.5 61.3056 355.5 66C355.5 70.6944 351.694 74.5 347 74.5C342.306 74.5 338.5 70.6944 338.5 66C338.5 61.3056 342.306 57.5 347 57.5ZM347 59.5C343.41 59.5 340.5 62.4101 340.5 66C340.5 69.5899 343.41 72.5 347 72.5C350.59 72.5 353.5 69.5899 353.5 66C353.5 62.4101 350.59 59.5 347 59.5ZM347 63C348.657 63 350 64.3431 350 66C350 67.6569 348.657 69 347 69C345.343 69 344 67.6569 344 66C344 64.3431 345.343 63 347 63Z" fill="#191919"/>
<path d="M326.5 57.5V74.5" stroke="#D2D2D2" stroke-width="0.35"/>
<path d="M172.574 58.808L173.407 58.026C173.713 58.2753 174.03 58.553 174.359 58.859C174.699 59.165 175.016 59.471 175.311 59.777C175.606 60.0717 175.838 60.338 176.008 60.576L175.141 61.477C174.971 61.2277 174.739 60.95 174.444 60.644C174.161 60.338 173.855 60.0263 173.526 59.709C173.197 59.3803 172.88 59.08 172.574 58.808ZM173.475 73.02L173.237 71.864L173.56 71.354L176.756 69.025C176.801 69.195 176.869 69.3877 176.96 69.603C177.062 69.807 177.147 69.9713 177.215 70.096C176.467 70.6513 175.855 71.1047 175.379 71.456C174.914 71.796 174.557 72.0623 174.308 72.255C174.059 72.459 173.872 72.612 173.747 72.714C173.634 72.8273 173.543 72.9293 173.475 73.02ZM171.231 63.058H174.257V64.282H171.231V63.058ZM179.204 58.332H183.641V59.522H179.204V58.332ZM177.028 65.234H184.967V66.424H177.028V65.234ZM184.559 65.234H184.797L185.035 65.183L185.817 65.523C185.466 66.6337 184.99 67.6197 184.389 68.481C183.8 69.3423 183.108 70.0903 182.315 70.725C181.533 71.3597 180.683 71.8923 179.765 72.323C178.858 72.7537 177.906 73.0993 176.909 73.36C176.864 73.2013 176.779 73.0087 176.654 72.782C176.529 72.5667 176.41 72.391 176.297 72.255C177.215 72.0397 178.105 71.7393 178.966 71.354C179.827 70.9687 180.626 70.4983 181.363 69.943C182.1 69.3763 182.74 68.719 183.284 67.971C183.839 67.223 184.264 66.3787 184.559 65.438V65.234ZM178.745 66.135C179.198 67.1663 179.81 68.0957 180.581 68.923C181.352 69.7503 182.27 70.4473 183.335 71.014C184.4 71.5807 185.579 72 186.871 72.272C186.78 72.3627 186.684 72.476 186.582 72.612C186.48 72.748 186.384 72.884 186.293 73.02C186.202 73.156 186.134 73.2863 186.089 73.411C184.083 72.9237 182.372 72.0907 180.955 70.912C179.538 69.7333 178.445 68.2657 177.674 66.509L178.745 66.135ZM178.847 58.332H180.054V60.253C180.054 60.7743 179.975 61.3183 179.816 61.885C179.657 62.4517 179.363 62.99 178.932 63.5C178.501 64.01 177.878 64.4633 177.062 64.86C177.005 64.7693 176.926 64.6673 176.824 64.554C176.722 64.4293 176.614 64.3103 176.501 64.197C176.399 64.0723 176.308 63.976 176.229 63.908C176.977 63.568 177.538 63.194 177.912 62.786C178.286 62.3667 178.535 61.9417 178.66 61.511C178.785 61.069 178.847 60.6383 178.847 60.219V58.332ZM183.063 58.332H184.27V62.276C184.27 62.5253 184.287 62.6953 184.321 62.786C184.355 62.8767 184.44 62.922 184.576 62.922C184.644 62.922 184.757 62.922 184.916 62.922C185.075 62.922 185.233 62.922 185.392 62.922C185.562 62.922 185.681 62.922 185.749 62.922C185.874 62.922 186.01 62.9163 186.157 62.905C186.316 62.8823 186.446 62.8597 186.548 62.837C186.559 62.9957 186.576 63.1827 186.599 63.398C186.622 63.6133 186.644 63.7947 186.667 63.942C186.565 63.976 186.429 63.9987 186.259 64.01C186.1 64.0213 185.936 64.027 185.766 64.027C185.687 64.027 185.556 64.027 185.375 64.027C185.194 64.027 185.018 64.027 184.848 64.027C184.678 64.027 184.559 64.027 184.491 64.027C184.094 64.027 183.794 63.9703 183.59 63.857C183.386 63.7437 183.244 63.5567 183.165 63.296C183.097 63.0353 183.063 62.6897 183.063 62.259V58.332ZM173.475 73.02C173.441 72.918 173.384 72.799 173.305 72.663C173.226 72.527 173.135 72.391 173.033 72.255C172.942 72.119 172.857 72.0113 172.778 71.932C172.891 71.864 173.01 71.7563 173.135 71.609C173.271 71.4617 173.384 71.286 173.475 71.082C173.577 70.878 173.628 70.6457 173.628 70.385V63.058H174.869V71.49C174.869 71.49 174.795 71.5467 174.648 71.66C174.512 71.762 174.353 71.8923 174.172 72.051C173.991 72.221 173.826 72.391 173.679 72.561C173.543 72.7423 173.475 72.8953 173.475 73.02ZM198.533 59.352V60.882H201.406V59.352H198.533ZM194.555 59.352V60.882H197.36V59.352H194.555ZM190.679 59.352V60.882H193.382V59.352H190.679ZM189.455 58.434H202.681V61.817H189.455V58.434ZM188.656 62.752H203.361V63.755H188.656V62.752ZM190.135 71.626H203.803V72.646H190.135V71.626ZM189.591 65.013H190.883V73.377H189.591V65.013ZM193.807 67.223V68.175H200.726V67.223H193.807ZM193.807 68.94V69.892H200.726V68.94H193.807ZM193.807 65.54V66.458H200.726V65.54H193.807ZM192.6 64.758H201.95V70.674H192.6V64.758ZM195.626 61.562L196.901 61.664C196.822 62.242 196.725 62.8597 196.612 63.517C196.51 64.163 196.408 64.7127 196.306 65.166H195.065C195.167 64.6787 195.269 64.1007 195.371 63.432C195.473 62.7633 195.558 62.14 195.626 61.562Z" fill="#191919"/>
<path d="M40.8786 18.7231C41.5205 18.7231 42.1293 18.8421 42.7048 19.0801C43.2803 19.3125 43.7894 19.6777 44.2321 20.1758C44.6804 20.6683 45.0318 21.3019 45.2863 22.0767C45.5409 22.8459 45.6682 23.7728 45.6682 24.8574V24.874C45.6682 26.2188 45.4745 27.3698 45.0871 28.3271C44.6997 29.2845 44.1436 30.0205 43.4186 30.5352C42.6992 31.0443 41.8387 31.2988 40.8371 31.2988C40.1011 31.2988 39.437 31.166 38.8449 30.9004C38.2583 30.6292 37.7713 30.2585 37.384 29.7881C37.0021 29.3122 36.7448 28.7699 36.612 28.1611L36.5954 28.0698H38.6955L38.7287 28.1528C38.8338 28.4295 38.9833 28.673 39.1769 28.8833C39.3762 29.0936 39.6141 29.2568 39.8908 29.373C40.173 29.4837 40.4885 29.5391 40.8371 29.5391C41.468 29.5391 41.9826 29.3537 42.381 28.9829C42.785 28.6066 43.0866 28.1058 43.2858 27.4805C43.4906 26.8496 43.6068 26.1523 43.6345 25.3887C43.64 25.3057 43.6428 25.2254 43.6428 25.1479C43.6428 25.0649 43.6428 24.9847 43.6428 24.9072L43.2692 22.9067C43.2692 22.453 43.1641 22.0407 42.9538 21.6699C42.7435 21.2992 42.4585 21.0059 42.0988 20.79C41.7446 20.5742 41.3434 20.4663 40.8952 20.4663C40.4636 20.4663 40.0679 20.5715 39.7082 20.7817C39.3485 20.992 39.0607 21.2798 38.8449 21.645C38.6291 22.0047 38.5212 22.4087 38.5212 22.8569V22.8735C38.5212 23.3384 38.6236 23.7507 38.8283 24.1104C39.0331 24.4645 39.3125 24.744 39.6667 24.9487C40.0209 25.1535 40.4248 25.2559 40.8786 25.2559C41.3324 25.2559 41.7391 25.1562 42.0988 24.957C42.4585 24.7578 42.7435 24.4811 42.9538 24.127C43.1641 23.7728 43.2692 23.3716 43.2692 22.9233V22.9067H43.7673V25.1147H43.4767C43.3329 25.4302 43.1198 25.7235 42.8376 25.9946C42.5554 26.2658 42.2067 26.4844 41.7917 26.6504C41.3822 26.8164 40.9007 26.8994 40.3474 26.8994C39.5837 26.8994 38.9085 26.7279 38.322 26.3848C37.7354 26.0417 37.2733 25.5713 36.9357 24.9736C36.6037 24.376 36.4377 23.7008 36.4377 22.9482V22.9316C36.4377 22.1182 36.6258 21.396 37.0021 20.7651C37.384 20.1287 37.9097 19.6307 38.5793 19.271C39.2544 18.9058 40.0209 18.7231 40.8786 18.7231ZM49.0287 29.3896C48.6524 29.3896 48.337 29.2651 48.0824 29.0161C47.8334 28.7616 47.7089 28.4517 47.7089 28.0864C47.7089 27.7157 47.8334 27.4058 48.0824 27.1567C48.337 26.9022 48.6524 26.7749 49.0287 26.7749C49.4105 26.7749 49.726 26.9022 49.975 27.1567C50.224 27.4058 50.3485 27.7157 50.3485 28.0864C50.3485 28.4517 50.224 28.7616 49.975 29.0161C49.726 29.2651 49.4105 29.3896 49.0287 29.3896ZM49.0287 23.2305C48.6524 23.2305 48.337 23.106 48.0824 22.8569C47.8334 22.6024 47.7089 22.2925 47.7089 21.9272C47.7089 21.5565 47.8334 21.2466 48.0824 20.9976C48.337 20.743 48.6524 20.6157 49.0287 20.6157C49.4105 20.6157 49.726 20.743 49.975 20.9976C50.224 21.2466 50.3485 21.5565 50.3485 21.9272C50.3485 22.2925 50.224 22.6024 49.975 22.8569C49.726 23.106 49.4105 23.2305 49.0287 23.2305ZM58.1998 31V28.7007H52.3395V26.9492C52.6549 26.4124 52.9703 25.8729 53.2857 25.3306C53.6067 24.7882 53.9304 24.2487 54.2569 23.7119C54.589 23.1696 54.9182 22.6356 55.2447 22.1099C55.5768 21.5786 55.906 21.0557 56.2325 20.541C56.5646 20.0208 56.8966 19.5145 57.2286 19.022H60.2418V26.9326H61.8605V28.7007H60.2418V31H58.1998ZM54.3316 26.9824H58.233V20.7319H58.1085C57.865 21.1082 57.6132 21.4956 57.3531 21.894C57.0986 22.2925 56.8412 22.6992 56.5812 23.1143C56.3211 23.5293 56.0637 23.9471 55.8092 24.3677C55.5546 24.7827 55.3028 25.2005 55.0538 25.6211C54.8048 26.0361 54.5641 26.4484 54.3316 26.8579V26.9824ZM66.408 31V21.1304H66.2586L63.2786 23.2305V21.2217L66.408 19.022H68.5413V31H66.408Z" fill="black"/>
<path opacity="0.35" d="M327 18.5H344C345.933 18.5 347.5 20.067 347.5 22V27C347.5 28.933 345.933 30.5 344 30.5H327C325.067 30.5 323.5 28.933 323.5 27V22C323.5 20.067 325.067 18.5 327 18.5Z" stroke="black"/>
<path opacity="0.4" d="M349 23V27.2203C349.849 26.8629 350.401 26.0314 350.401 25.1102C350.401 24.1889 349.849 23.3574 349 23Z" fill="black"/>
<path d="M325 22C325 20.8954 325.895 20 327 20H344C345.105 20 346 20.8954 346 22V27C346 28.1046 345.105 29 344 29H327C325.895 29 325 28.1046 325 27V22Z" fill="black"/>
<path d="M305.115 27.9189C306.535 26.6934 308.614 26.6935 310.034 27.9189C310.106 27.9849 310.147 28.0785 310.149 28.1768C310.151 28.275 310.114 28.3696 310.045 28.4385L307.821 30.7285C307.756 30.7958 307.668 30.8339 307.575 30.834C307.482 30.834 307.393 30.7958 307.328 30.7285L305.104 28.4385C305.036 28.3696 304.998 28.275 305 28.1768C305.002 28.0785 305.044 27.9848 305.115 27.9189ZM302.109 25.1787C305.168 22.2741 309.906 22.2741 312.965 25.1787C313.034 25.2468 313.073 25.3405 313.074 25.4385C313.075 25.5364 313.037 25.6308 312.97 25.7002L311.685 27.0254C311.552 27.1607 311.338 27.164 311.202 27.0322C310.198 26.1038 308.891 25.5898 307.536 25.5898C306.182 25.5904 304.876 26.1043 303.872 27.0322C303.736 27.164 303.522 27.1607 303.39 27.0254L302.104 25.7002C302.037 25.6308 301.999 25.5364 302 25.4385C302.001 25.3405 302.04 25.2468 302.109 25.1787ZM299.107 22.4424C303.799 17.8528 311.201 17.8528 315.893 22.4424C315.96 22.5106 315.999 22.6039 316 22.7012C316 22.7983 315.963 22.892 315.896 22.9609L314.609 24.2861C314.477 24.4221 314.262 24.4238 314.127 24.29C312.339 22.5553 309.967 21.588 307.5 21.5879C305.033 21.588 302.661 22.5553 300.873 24.29C300.738 24.4239 300.523 24.4223 300.391 24.2861L299.104 22.9609C299.037 22.892 299 22.7982 299 22.7012C299.001 22.6039 299.039 22.5105 299.107 22.4424Z" fill="black"/>
<path d="M283 22C283 21.4477 283.448 21 284 21H285C285.552 21 286 21.4477 286 22V30C286 30.5523 285.552 31 285 31H284C283.448 31 283 30.5523 283 30V22Z" fill="black"/>
<path d="M288 20C288 19.4477 288.448 19 289 19H290C290.552 19 291 19.4477 291 20V30C291 30.5523 290.552 31 290 31H289C288.448 31 288 30.5523 288 30V20Z" fill="black"/>
<path d="M278 25.5C278 24.9477 278.448 24.5 279 24.5H280C280.552 24.5 281 24.9477 281 25.5V30C281 30.5523 280.552 31 280 31H279C278.448 31 278 30.5523 278 30V25.5Z" fill="black"/>
<path d="M273 28C273 27.4477 273.448 27 274 27H275C275.552 27 276 27.4477 276 28V30C276 30.5523 275.552 31 275 31H274C273.448 31 273 30.5523 273 30V28Z" fill="black"/>
<path d="M32 58L27 63M27 63L32 68M27 63H37M19.5 63C19.5 56.0964 25.0964 50.5 32 50.5C38.9036 50.5 44.5 56.0964 44.5 63C44.5 69.9036 38.9036 75.5 32 75.5C25.0964 75.5 19.5 69.9036 19.5 63Z" stroke="#0884FF" stroke-width="2.5" stroke-linecap="round" stroke-linejoin="round"/>
<rect width="375" height="56" transform="translate(0 88)" fill="white"/>
<rect width="340" height="56" transform="translate(0 88)" fill="white"/>
<g filter="url(#filter0_d_456_1241)">
<path d="M19.502 109.562H29.498V110.786H19.502V109.562ZM18.856 113.693H30.178V114.9H18.856V113.693ZM25.112 114.101C25.5087 115.597 26.1547 116.883 27.05 117.96C27.9453 119.025 29.1183 119.785 30.569 120.238C30.467 120.317 30.3593 120.425 30.246 120.561C30.144 120.697 30.042 120.833 29.94 120.969C29.8493 121.116 29.77 121.247 29.702 121.36C28.1833 120.805 26.965 119.932 26.047 118.742C25.129 117.541 24.449 116.079 24.007 114.356L25.112 114.101ZM27.628 105.737L28.954 106.196C28.6593 106.74 28.3363 107.301 27.985 107.879C27.6337 108.457 27.305 108.944 26.999 109.341L25.962 108.916C26.1547 108.633 26.353 108.304 26.557 107.93C26.7723 107.556 26.9707 107.176 27.152 106.791C27.3447 106.406 27.5033 106.054 27.628 105.737ZM20.182 106.434L21.219 105.924C21.4683 106.207 21.7063 106.525 21.933 106.876C22.171 107.216 22.3807 107.556 22.562 107.896C22.7547 108.225 22.902 108.525 23.004 108.797L21.882 109.409C21.7913 109.126 21.6553 108.814 21.474 108.474C21.2927 108.134 21.0887 107.788 20.862 107.437C20.6467 107.074 20.42 106.74 20.182 106.434ZM23.752 109.834H25.061V113.387C25.061 113.908 25.0213 114.452 24.942 115.019C24.874 115.574 24.7267 116.141 24.5 116.719C24.2847 117.286 23.9617 117.847 23.531 118.402C23.1003 118.957 22.5337 119.49 21.831 120C21.1283 120.51 20.2557 120.98 19.213 121.411C19.1563 121.309 19.077 121.196 18.975 121.071C18.873 120.958 18.7653 120.839 18.652 120.714C18.55 120.601 18.4423 120.499 18.329 120.408C19.349 120.034 20.1877 119.62 20.845 119.167C21.5137 118.702 22.0407 118.226 22.426 117.739C22.8227 117.252 23.1117 116.759 23.293 116.26C23.4857 115.75 23.6103 115.251 23.667 114.764C23.7237 114.277 23.752 113.812 23.752 113.37V109.834ZM33.935 112.503H49.082V113.778H33.935V112.503ZM40.99 107.352H42.333V119.49C42.333 119.955 42.2593 120.3 42.112 120.527C41.976 120.754 41.7493 120.924 41.432 121.037C41.1147 121.15 40.667 121.218 40.089 121.241C39.5223 121.264 38.8027 121.275 37.93 121.275C37.9073 121.15 37.8677 121.009 37.811 120.85C37.7543 120.691 37.6863 120.527 37.607 120.357C37.539 120.198 37.471 120.057 37.403 119.932C37.8677 119.955 38.3097 119.966 38.729 119.966C39.1483 119.966 39.511 119.966 39.817 119.966C40.1343 119.955 40.3553 119.949 40.48 119.949C40.6727 119.949 40.803 119.921 40.871 119.864C40.9503 119.796 40.99 119.671 40.99 119.49V107.352ZM35.108 106.927H47.892V108.202H35.108V106.927ZM61.968 106.842L62.937 106.162C63.2657 106.445 63.6057 106.757 63.957 107.097C64.3083 107.437 64.637 107.777 64.943 108.117C65.249 108.446 65.4927 108.746 65.674 109.018L64.637 109.766C64.467 109.494 64.2347 109.188 63.94 108.848C63.6453 108.497 63.3223 108.145 62.971 107.794C62.631 107.443 62.2967 107.125 61.968 106.842ZM50.952 110.752H66.082V111.959H50.952V110.752ZM50.697 115.733C51.3657 115.608 52.1477 115.455 53.043 115.274C53.9497 115.093 54.9017 114.9 55.899 114.696C56.9077 114.481 57.9107 114.265 58.908 114.05L59.01 115.189C58.0807 115.404 57.14 115.625 56.188 115.852C55.2473 116.067 54.335 116.277 53.451 116.481C52.5783 116.674 51.785 116.855 51.071 117.025L50.697 115.733ZM54.59 107.454H55.865V119.711C55.865 120.13 55.8083 120.448 55.695 120.663C55.593 120.878 55.4003 121.037 55.117 121.139C54.8563 121.241 54.488 121.303 54.012 121.326C53.5473 121.36 52.9637 121.377 52.261 121.377C52.2383 121.252 52.2043 121.111 52.159 120.952C52.1137 120.805 52.057 120.652 51.989 120.493C51.921 120.334 51.8587 120.198 51.802 120.085C52.346 120.096 52.8447 120.102 53.298 120.102C53.7513 120.113 54.0517 120.113 54.199 120.102C54.3463 120.091 54.4483 120.057 54.505 120C54.5617 119.955 54.59 119.858 54.59 119.711V107.454ZM57.82 105.924L58.721 106.995C58.0637 107.222 57.3213 107.431 56.494 107.624C55.678 107.805 54.8337 107.975 53.961 108.134C53.0997 108.293 52.261 108.429 51.445 108.542C51.411 108.395 51.3543 108.219 51.275 108.015C51.207 107.8 51.1333 107.618 51.054 107.471C51.8473 107.346 52.6633 107.205 53.502 107.046C54.3407 106.876 55.134 106.695 55.882 106.502C56.63 106.309 57.276 106.117 57.82 105.924ZM59.52 105.856H60.863C60.8517 107.409 60.9027 108.899 61.016 110.327C61.1407 111.744 61.3163 113.053 61.543 114.254C61.7697 115.444 62.036 116.481 62.342 117.365C62.6593 118.238 63.005 118.918 63.379 119.405C63.753 119.881 64.144 120.119 64.552 120.119C64.79 120.119 64.9657 119.887 65.079 119.422C65.2037 118.946 65.2887 118.158 65.334 117.059C65.47 117.195 65.64 117.331 65.844 117.467C66.048 117.592 66.235 117.688 66.405 117.756C66.337 118.697 66.2293 119.433 66.082 119.966C65.9347 120.499 65.7307 120.873 65.47 121.088C65.2093 121.303 64.8637 121.411 64.433 121.411C63.889 121.411 63.3847 121.218 62.92 120.833C62.4667 120.448 62.0587 119.904 61.696 119.201C61.3447 118.487 61.033 117.648 60.761 116.685C60.5003 115.722 60.2793 114.662 60.098 113.506C59.9167 112.339 59.7807 111.109 59.69 109.817C59.5993 108.525 59.5427 107.205 59.52 105.856ZM64.144 112.741L65.266 113.217C64.722 114.26 64.0533 115.251 63.26 116.192C62.478 117.121 61.611 117.971 60.659 118.742C59.7183 119.513 58.721 120.17 57.667 120.714C57.565 120.567 57.429 120.397 57.259 120.204C57.1003 120.011 56.9417 119.847 56.783 119.711C57.803 119.224 58.7777 118.623 59.707 117.909C60.6363 117.184 61.4807 116.379 62.24 115.495C62.9993 114.611 63.634 113.693 64.144 112.741ZM76.775 106.349H81.892V107.505H76.775V106.349ZM81.399 106.349H82.674V119.745C82.674 120.13 82.623 120.425 82.521 120.629C82.419 120.833 82.2377 120.992 81.977 121.105C81.7163 121.196 81.3593 121.252 80.906 121.275C80.464 121.298 79.9087 121.309 79.24 121.309C79.2173 121.15 79.1663 120.946 79.087 120.697C79.0077 120.459 78.9227 120.261 78.832 120.102C79.3193 120.113 79.7727 120.119 80.192 120.119C80.6227 120.13 80.906 120.13 81.042 120.119C81.178 120.108 81.2687 120.074 81.314 120.017C81.3707 119.972 81.399 119.875 81.399 119.728V106.349ZM73.477 106.264L74.463 105.737C74.7123 106.066 74.9673 106.428 75.228 106.825C75.4887 107.222 75.7323 107.613 75.959 107.998C76.1857 108.372 76.367 108.706 76.503 109.001L75.449 109.613C75.3243 109.318 75.1543 108.978 74.939 108.593C74.7237 108.208 74.4857 107.811 74.225 107.403C73.9757 106.995 73.7263 106.615 73.477 106.264ZM72.746 109.154H73.987V121.36H72.746V109.154ZM70.825 105.822L72.015 106.145C71.7317 107.12 71.3973 108.089 71.012 109.052C70.638 110.015 70.2187 110.928 69.754 111.789C69.3007 112.639 68.8133 113.398 68.292 114.067C68.258 113.965 68.1957 113.835 68.105 113.676C68.0257 113.506 67.9407 113.342 67.85 113.183C67.7707 113.013 67.6913 112.877 67.612 112.775C68.054 112.197 68.4733 111.534 68.87 110.786C69.278 110.038 69.6463 109.239 69.975 108.389C70.315 107.539 70.5983 106.683 70.825 105.822ZM69.482 110.089L70.655 108.916L70.689 108.95V121.343H69.482V110.089Z" fill="black" fill-opacity="0.9" shape-rendering="crispEdges"/>
</g>
<rect width="150" height="56" transform="translate(225 88)" fill="white"/>
<path fill-rule="evenodd" clip-rule="evenodd" d="M343.454 110.581L344.515 109.52L350.293 115.298C350.684 115.689 350.684 116.322 350.293 116.712L344.515 122.491L343.454 121.43L348.879 116.005L343.454 110.581Z" fill="black" fill-opacity="0.3"/>
<mask id="mask0_456_1241" style="mask-type:luminance" maskUnits="userSpaceOnUse" x="343" y="109" width="8" height="14">
<path fill-rule="evenodd" clip-rule="evenodd" d="M343.454 110.581L344.515 109.52L350.293 115.298C350.684 115.689 350.684 116.322 350.293 116.712L344.515 122.491L343.454 121.43L348.879 116.005L343.454 110.581Z" fill="white"/>
</mask>
<g mask="url(#mask0_456_1241)">
</g>
<rect x="16" y="143.5" width="343" height="0.5" fill="black" fill-opacity="0.1"/>
<rect width="375" height="56" transform="translate(0 199)" fill="white"/>
<rect width="340" height="56" transform="translate(0 199)" fill="white"/>
<g filter="url(#filter1_d_456_1241)">
<path d="M18.346 217.349H22.307V218.539H18.346V217.349ZM18.346 221.327H22.341V222.517H18.346V221.327ZM24.976 223.18H31.164V224.353H24.976V223.18ZM18.312 225.39H22.307V226.597H18.312V225.39ZM17.836 217.349H18.992V223.452C18.992 224.121 18.975 224.84 18.941 225.611C18.907 226.382 18.8447 227.169 18.754 227.974C18.6633 228.767 18.5273 229.544 18.346 230.303C18.1647 231.062 17.921 231.754 17.615 232.377C17.547 232.309 17.4507 232.235 17.326 232.156C17.2013 232.077 17.071 232.003 16.935 231.935C16.799 231.867 16.68 231.816 16.578 231.782C16.8727 231.181 17.0993 230.53 17.258 229.827C17.428 229.124 17.5527 228.405 17.632 227.668C17.7113 226.92 17.7623 226.189 17.785 225.475C17.819 224.75 17.836 224.075 17.836 223.452V217.349ZM21.593 217.349H22.783V230.83C22.783 231.17 22.7377 231.442 22.647 231.646C22.5563 231.861 22.4033 232.02 22.188 232.122C21.9727 232.235 21.6837 232.303 21.321 232.326C20.9583 232.349 20.488 232.36 19.91 232.36C19.8987 232.258 19.876 232.128 19.842 231.969C19.808 231.822 19.7627 231.674 19.706 231.527C19.6607 231.38 19.6097 231.249 19.553 231.136C19.9497 231.147 20.3067 231.153 20.624 231.153C20.9413 231.153 21.1567 231.147 21.27 231.136C21.3833 231.136 21.4627 231.113 21.508 231.068C21.5647 231.023 21.593 230.938 21.593 230.813V217.349ZM30.263 217.4H31.504V220.698C31.504 221.004 31.4587 221.248 31.368 221.429C31.2773 221.61 31.096 221.752 30.824 221.854C30.5633 221.933 30.212 221.984 29.77 222.007C29.328 222.018 28.784 222.024 28.138 222.024C28.1153 221.843 28.0587 221.656 27.968 221.463C27.8887 221.259 27.8093 221.083 27.73 220.936C28.0813 220.936 28.4043 220.942 28.699 220.953C29.005 220.964 29.2657 220.97 29.481 220.97C29.6963 220.959 29.8493 220.953 29.94 220.953C30.076 220.942 30.161 220.919 30.195 220.885C30.2403 220.851 30.263 220.783 30.263 220.681V217.4ZM30.807 223.18H31.028L31.249 223.129L31.997 223.401C31.7137 224.852 31.2887 226.149 30.722 227.294C30.1667 228.427 29.5093 229.408 28.75 230.235C28.002 231.062 27.186 231.737 26.302 232.258C26.234 232.122 26.1263 231.958 25.979 231.765C25.8317 231.572 25.69 231.425 25.554 231.323C26.37 230.892 27.1293 230.297 27.832 229.538C28.5347 228.767 29.1467 227.866 29.668 226.835C30.1893 225.792 30.569 224.653 30.807 223.418V223.18ZM26.88 223.911C27.2087 225.01 27.6393 226.047 28.172 227.022C28.716 227.997 29.3507 228.864 30.076 229.623C30.8013 230.371 31.606 230.96 32.49 231.391C32.354 231.504 32.2067 231.657 32.048 231.85C31.8893 232.054 31.759 232.23 31.657 232.377C30.7503 231.878 29.923 231.221 29.175 230.405C28.4383 229.578 27.7923 228.637 27.237 227.583C26.6817 226.518 26.2227 225.384 25.86 224.183L26.88 223.911ZM24.279 217.4H30.62V218.59H25.486V232.36H24.279V217.4ZM35.142 226.206H46.957V227.328H35.142V226.206ZM46.515 226.206H47.79C47.79 226.206 47.7843 226.24 47.773 226.308C47.773 226.376 47.7673 226.455 47.756 226.546C47.756 226.637 47.7447 226.716 47.722 226.784C47.5973 227.804 47.467 228.648 47.331 229.317C47.2063 229.986 47.0647 230.507 46.906 230.881C46.7473 231.255 46.5717 231.527 46.379 231.697C46.1977 231.867 45.9993 231.98 45.784 232.037C45.5687 232.105 45.308 232.15 45.002 232.173C44.7413 232.173 44.3787 232.167 43.914 232.156C43.4493 232.156 42.962 232.145 42.452 232.122C42.4407 231.941 42.3953 231.742 42.316 231.527C42.248 231.323 42.1573 231.142 42.044 230.983C42.3953 231.017 42.741 231.04 43.081 231.051C43.4323 231.074 43.744 231.085 44.016 231.085C44.288 231.096 44.492 231.102 44.628 231.102C44.8093 231.102 44.9567 231.091 45.07 231.068C45.1833 231.045 45.2853 231 45.376 230.932C45.5233 230.807 45.665 230.575 45.801 230.235C45.937 229.884 46.0617 229.396 46.175 228.773C46.2883 228.138 46.4017 227.345 46.515 226.393V226.206ZM40.582 224.523L41.908 224.625C41.6813 226.155 41.2733 227.43 40.684 228.45C40.0947 229.459 39.3013 230.269 38.304 230.881C37.318 231.493 36.1053 231.975 34.666 232.326C34.632 232.224 34.5697 232.105 34.479 231.969C34.3997 231.844 34.3147 231.714 34.224 231.578C34.1333 231.442 34.0483 231.329 33.969 231.238C35.3403 230.977 36.485 230.586 37.403 230.065C38.321 229.532 39.0407 228.818 39.562 227.923C40.0833 227.016 40.4233 225.883 40.582 224.523ZM38.474 218.471H46.719V219.559H38.474V218.471ZM46.413 218.471H46.668L46.889 218.403L47.654 218.93C47.042 219.848 46.2487 220.653 45.274 221.344C44.3107 222.024 43.2227 222.602 42.01 223.078C40.8087 223.554 39.545 223.945 38.219 224.251C36.9043 224.546 35.5953 224.772 34.292 224.931C34.2467 224.772 34.173 224.585 34.071 224.37C33.9803 224.143 33.884 223.956 33.782 223.809C35.04 223.684 36.3037 223.492 37.573 223.231C38.8537 222.97 40.0663 222.63 41.211 222.211C42.3557 221.78 43.3757 221.27 44.271 220.681C45.1777 220.092 45.8917 219.412 46.413 218.641V218.471ZM38.457 219.746C39.0803 220.539 39.9303 221.208 41.007 221.752C42.0837 222.285 43.3303 222.698 44.747 222.993C46.175 223.288 47.705 223.48 49.337 223.571C49.2577 223.673 49.167 223.792 49.065 223.928C48.9743 224.064 48.8893 224.2 48.81 224.336C48.7307 224.472 48.6683 224.602 48.623 224.727C46.9683 224.58 45.4213 224.33 43.982 223.979C42.5427 223.628 41.262 223.146 40.14 222.534C39.0293 221.911 38.1113 221.129 37.386 220.188L38.457 219.746ZM39.494 216.703L40.82 216.958C40.2533 217.876 39.5167 218.783 38.61 219.678C37.7147 220.573 36.621 221.384 35.329 222.109C35.2723 222.007 35.1987 221.899 35.108 221.786C35.0173 221.661 34.921 221.542 34.819 221.429C34.717 221.316 34.6207 221.225 34.53 221.157C35.3347 220.738 36.0543 220.279 36.689 219.78C37.335 219.281 37.8903 218.766 38.355 218.233C38.831 217.7 39.2107 217.19 39.494 216.703ZM50.799 220.698H55.78V221.888H50.799V220.698ZM52.72 216.72H53.961V232.343H52.72V216.72ZM56.307 219.95H63.396V221.191H56.307V219.95ZM62.92 219.95H64.144C64.144 219.95 64.144 219.995 64.144 220.086C64.144 220.165 64.1383 220.256 64.127 220.358C64.127 220.46 64.127 220.539 64.127 220.596C64.0817 222.489 64.0363 224.092 63.991 225.407C63.9457 226.71 63.889 227.776 63.821 228.603C63.753 229.43 63.668 230.071 63.566 230.524C63.4753 230.977 63.3563 231.3 63.209 231.493C63.039 231.72 62.8577 231.878 62.665 231.969C62.4723 232.071 62.2343 232.133 61.951 232.156C61.6903 232.19 61.3447 232.201 60.914 232.19C60.4947 232.19 60.0583 232.179 59.605 232.156C59.5937 231.963 59.554 231.748 59.486 231.51C59.4293 231.283 59.3387 231.085 59.214 230.915C59.7127 230.96 60.166 230.989 60.574 231C60.982 231 61.271 231 61.441 231C61.5997 231 61.73 230.983 61.832 230.949C61.934 230.915 62.0247 230.847 62.104 230.745C62.2287 230.609 62.3307 230.326 62.41 229.895C62.4893 229.464 62.5573 228.841 62.614 228.025C62.682 227.209 62.7387 226.166 62.784 224.897C62.8293 223.628 62.8747 222.075 62.92 220.239V219.95ZM56.562 222.942L57.718 223.163C57.5367 224.058 57.2873 224.931 56.97 225.781C56.6527 226.62 56.3013 227.334 55.916 227.923C55.848 227.866 55.7517 227.798 55.627 227.719C55.5137 227.628 55.3947 227.543 55.27 227.464C55.1453 227.373 55.0377 227.305 54.947 227.26C55.321 226.705 55.644 226.047 55.916 225.288C56.188 224.529 56.4033 223.747 56.562 222.942ZM64.246 223.214L65.334 222.993C65.4927 223.503 65.6513 224.058 65.81 224.659C65.98 225.248 66.1273 225.815 66.252 226.359C66.3767 226.903 66.4673 227.373 66.524 227.77L65.334 228.076C65.3 227.668 65.2263 227.186 65.113 226.631C64.9997 226.064 64.8693 225.486 64.722 224.897C64.5747 224.296 64.416 223.735 64.246 223.214ZM59.333 216.873H60.557V219.916C60.557 220.868 60.5117 221.877 60.421 222.942C60.3303 223.996 60.1263 225.073 59.809 226.172C59.503 227.271 59.027 228.348 58.381 229.402C57.735 230.456 56.8567 231.448 55.746 232.377C55.678 232.286 55.5817 232.184 55.457 232.071C55.3437 231.969 55.2247 231.861 55.1 231.748C54.9753 231.646 54.862 231.567 54.76 231.51C55.8367 230.637 56.681 229.708 57.293 228.722C57.905 227.736 58.3527 226.733 58.636 225.713C58.9307 224.693 59.1177 223.69 59.197 222.704C59.2877 221.718 59.333 220.789 59.333 219.916V216.873ZM74.514 217.978C74.888 220.154 75.432 222.132 76.146 223.911C76.8713 225.679 77.8347 227.192 79.036 228.45C80.2487 229.697 81.7673 230.649 83.592 231.306C83.49 231.385 83.3767 231.493 83.252 231.629C83.1387 231.765 83.031 231.901 82.929 232.037C82.827 232.173 82.742 232.298 82.674 232.411C81.2687 231.867 80.0447 231.153 79.002 230.269C77.9593 229.374 77.0697 228.325 76.333 227.124C75.6077 225.911 75.0013 224.557 74.514 223.061C74.0267 221.565 73.6243 219.939 73.307 218.182L74.514 217.978ZM76.214 217.519L77.285 217.06C77.523 217.434 77.7553 217.836 77.982 218.267C78.22 218.686 78.4297 219.1 78.611 219.508C78.8037 219.905 78.9453 220.262 79.036 220.579L77.88 221.106C77.7893 220.789 77.6533 220.426 77.472 220.018C77.302 219.599 77.1037 219.174 76.877 218.743C76.6617 218.301 76.4407 217.893 76.214 217.519ZM81.144 217.774L82.453 217.978C82.1697 219.587 81.807 221.117 81.365 222.568C80.9343 224.019 80.3677 225.362 79.665 226.597C78.9623 227.832 78.0727 228.949 76.996 229.946C75.9193 230.932 74.6047 231.776 73.052 232.479C72.9953 232.366 72.9217 232.247 72.831 232.122C72.7403 231.997 72.644 231.873 72.542 231.748C72.4513 231.623 72.3663 231.516 72.287 231.425C73.783 230.79 75.041 230.008 76.061 229.079C77.081 228.138 77.9253 227.084 78.594 225.917C79.2627 224.738 79.7953 223.469 80.192 222.109C80.5887 220.738 80.906 219.293 81.144 217.774ZM68.921 217.893L69.839 217.196C70.0997 217.457 70.366 217.74 70.638 218.046C70.9213 218.352 71.1877 218.652 71.437 218.947C71.6863 219.23 71.879 219.491 72.015 219.729L71.046 220.528C70.8987 220.29 70.706 220.018 70.468 219.712C70.2413 219.395 69.992 219.083 69.72 218.777C69.448 218.46 69.1817 218.165 68.921 217.893ZM70.179 231.918L69.958 230.728L70.332 230.184L73.46 228.025C73.5053 228.195 73.5677 228.388 73.647 228.603C73.7377 228.807 73.817 228.977 73.885 229.113C73.137 229.646 72.5307 230.076 72.066 230.405C71.6127 230.734 71.2613 230.989 71.012 231.17C70.7627 231.363 70.5813 231.51 70.468 231.612C70.3547 231.725 70.2583 231.827 70.179 231.918ZM67.782 222.041H71.233V223.282H67.782V222.041ZM70.179 231.918C70.1337 231.827 70.0657 231.72 69.975 231.595C69.8957 231.482 69.805 231.368 69.703 231.255C69.6123 231.153 69.5273 231.074 69.448 231.017C69.584 230.881 69.737 230.671 69.907 230.388C70.0883 230.093 70.179 229.725 70.179 229.283V222.041H71.42V230.201C71.42 230.201 71.3803 230.246 71.301 230.337C71.2217 230.428 71.1197 230.541 70.995 230.677C70.8703 230.802 70.7457 230.938 70.621 231.085C70.4963 231.244 70.3887 231.397 70.298 231.544C70.2187 231.691 70.179 231.816 70.179 231.918Z" fill="black" fill-opacity="0.9" shape-rendering="crispEdges"/>
</g>
<rect width="150" height="56" transform="translate(225 199)" fill="white"/>
<path fill-rule="evenodd" clip-rule="evenodd" d="M343.454 221.581L344.515 220.52L350.293 226.298C350.684 226.689 350.684 227.322 350.293 227.712L344.515 233.491L343.454 232.43L348.879 227.005L343.454 221.581Z" fill="black" fill-opacity="0.3"/>
<mask id="mask1_456_1241" style="mask-type:luminance" maskUnits="userSpaceOnUse" x="343" y="220" width="8" height="14">
<path fill-rule="evenodd" clip-rule="evenodd" d="M343.454 221.581L344.515 220.52L350.293 226.298C350.684 226.689 350.684 227.322 350.293 227.712L344.515 233.491L343.454 232.43L348.879 227.005L343.454 221.581Z" fill="white"/>
</mask>
<g mask="url(#mask1_456_1241)">
</g>
<rect x="16" y="254.5" width="343" height="0.5" fill="black" fill-opacity="0.1"/>
<rect width="375" height="56" transform="translate(0 254)" fill="white"/>
<rect width="340" height="56" transform="translate(0 254)" fill="white"/>
<g filter="url(#filter2_d_456_1241)">
<path d="M26.285 284.623H30.909V285.847H26.285V284.623ZM16.901 274.933H23.446V276.191H16.901V274.933ZM25.724 273.828H31.521V286.969H30.246V275.069H26.948V287.105H25.724V273.828ZM23.106 274.933H24.33C24.33 274.933 24.33 274.978 24.33 275.069C24.33 275.148 24.33 275.245 24.33 275.358C24.33 275.46 24.33 275.539 24.33 275.596C24.296 277.489 24.262 279.081 24.228 280.373C24.194 281.665 24.1487 282.725 24.092 283.552C24.0353 284.368 23.9617 284.997 23.871 285.439C23.7917 285.881 23.684 286.193 23.548 286.374C23.3893 286.589 23.225 286.742 23.055 286.833C22.885 286.935 22.6753 287.003 22.426 287.037C22.188 287.071 21.882 287.082 21.508 287.071C21.1453 287.071 20.777 287.06 20.403 287.037C20.3917 286.844 20.352 286.629 20.284 286.391C20.2273 286.153 20.1423 285.943 20.029 285.762C20.4257 285.796 20.794 285.819 21.134 285.83C21.474 285.83 21.7177 285.83 21.865 285.83C21.9897 285.841 22.0973 285.83 22.188 285.796C22.2787 285.751 22.3637 285.671 22.443 285.558C22.5337 285.433 22.613 285.167 22.681 284.759C22.749 284.34 22.8113 283.733 22.868 282.94C22.9247 282.147 22.97 281.121 23.004 279.863C23.038 278.594 23.072 277.052 23.106 275.239V274.933ZM19.315 271.941H20.573C20.5617 273.516 20.5333 275.052 20.488 276.548C20.4427 278.044 20.3237 279.461 20.131 280.798C19.9497 282.135 19.6437 283.365 19.213 284.487C18.7937 285.598 18.21 286.561 17.462 287.377C17.394 287.275 17.3033 287.167 17.19 287.054C17.0767 286.952 16.9577 286.85 16.833 286.748C16.7083 286.646 16.5893 286.561 16.476 286.493C17.0427 285.904 17.5017 285.212 17.853 284.419C18.2157 283.626 18.499 282.759 18.703 281.818C18.907 280.866 19.0487 279.857 19.128 278.792C19.2187 277.715 19.2697 276.605 19.281 275.46C19.3037 274.304 19.315 273.131 19.315 271.941ZM36.876 272.757H41.687V274.049H36.876V272.757ZM41.041 272.757H42.333C42.333 273.256 42.3557 273.845 42.401 274.525C42.4463 275.205 42.5427 275.936 42.69 276.718C42.8373 277.489 43.064 278.293 43.37 279.132C43.676 279.971 44.0897 280.809 44.611 281.648C45.1323 282.475 45.784 283.28 46.566 284.062C47.3593 284.844 48.317 285.564 49.439 286.221C49.3483 286.3 49.2293 286.402 49.082 286.527C48.946 286.663 48.8157 286.799 48.691 286.935C48.5777 287.082 48.4813 287.207 48.402 287.309C47.2687 286.618 46.294 285.858 45.478 285.031C44.6733 284.192 43.999 283.32 43.455 282.413C42.9223 281.506 42.4917 280.6 42.163 279.693C41.8457 278.775 41.602 277.891 41.432 277.041C41.2733 276.18 41.1657 275.381 41.109 274.644C41.0637 273.907 41.041 273.278 41.041 272.757ZM40.548 276.089L41.993 276.344C41.585 278.067 41.0523 279.619 40.395 281.002C39.749 282.385 38.9613 283.603 38.032 284.657C37.114 285.7 36.026 286.589 34.768 287.326C34.7 287.235 34.5923 287.128 34.445 287.003C34.309 286.878 34.1617 286.748 34.003 286.612C33.8557 286.487 33.7253 286.385 33.612 286.306C35.5047 285.309 37.0063 283.96 38.117 282.26C39.2277 280.549 40.038 278.492 40.548 276.089ZM61.968 272.842L62.937 272.162C63.2657 272.445 63.6057 272.757 63.957 273.097C64.3083 273.437 64.637 273.777 64.943 274.117C65.249 274.446 65.4927 274.746 65.674 275.018L64.637 275.766C64.467 275.494 64.2347 275.188 63.94 274.848C63.6453 274.497 63.3223 274.145 62.971 273.794C62.631 273.443 62.2967 273.125 61.968 272.842ZM50.952 276.752H66.082V277.959H50.952V276.752ZM50.697 281.733C51.3657 281.608 52.1477 281.455 53.043 281.274C53.9497 281.093 54.9017 280.9 55.899 280.696C56.9077 280.481 57.9107 280.265 58.908 280.05L59.01 281.189C58.0807 281.404 57.14 281.625 56.188 281.852C55.2473 282.067 54.335 282.277 53.451 282.481C52.5783 282.674 51.785 282.855 51.071 283.025L50.697 281.733ZM54.59 273.454H55.865V285.711C55.865 286.13 55.8083 286.448 55.695 286.663C55.593 286.878 55.4003 287.037 55.117 287.139C54.8563 287.241 54.488 287.303 54.012 287.326C53.5473 287.36 52.9637 287.377 52.261 287.377C52.2383 287.252 52.2043 287.111 52.159 286.952C52.1137 286.805 52.057 286.652 51.989 286.493C51.921 286.334 51.8587 286.198 51.802 286.085C52.346 286.096 52.8447 286.102 53.298 286.102C53.7513 286.113 54.0517 286.113 54.199 286.102C54.3463 286.091 54.4483 286.057 54.505 286C54.5617 285.955 54.59 285.858 54.59 285.711V273.454ZM57.82 271.924L58.721 272.995C58.0637 273.222 57.3213 273.431 56.494 273.624C55.678 273.805 54.8337 273.975 53.961 274.134C53.0997 274.293 52.261 274.429 51.445 274.542C51.411 274.395 51.3543 274.219 51.275 274.015C51.207 273.8 51.1333 273.618 51.054 273.471C51.8473 273.346 52.6633 273.205 53.502 273.046C54.3407 272.876 55.134 272.695 55.882 272.502C56.63 272.309 57.276 272.117 57.82 271.924ZM59.52 271.856H60.863C60.8517 273.409 60.9027 274.899 61.016 276.327C61.1407 277.744 61.3163 279.053 61.543 280.254C61.7697 281.444 62.036 282.481 62.342 283.365C62.6593 284.238 63.005 284.918 63.379 285.405C63.753 285.881 64.144 286.119 64.552 286.119C64.79 286.119 64.9657 285.887 65.079 285.422C65.2037 284.946 65.2887 284.158 65.334 283.059C65.47 283.195 65.64 283.331 65.844 283.467C66.048 283.592 66.235 283.688 66.405 283.756C66.337 284.697 66.2293 285.433 66.082 285.966C65.9347 286.499 65.7307 286.873 65.47 287.088C65.2093 287.303 64.8637 287.411 64.433 287.411C63.889 287.411 63.3847 287.218 62.92 286.833C62.4667 286.448 62.0587 285.904 61.696 285.201C61.3447 284.487 61.033 283.648 60.761 282.685C60.5003 281.722 60.2793 280.662 60.098 279.506C59.9167 278.339 59.7807 277.109 59.69 275.817C59.5993 274.525 59.5427 273.205 59.52 271.856ZM64.144 278.741L65.266 279.217C64.722 280.26 64.0533 281.251 63.26 282.192C62.478 283.121 61.611 283.971 60.659 284.742C59.7183 285.513 58.721 286.17 57.667 286.714C57.565 286.567 57.429 286.397 57.259 286.204C57.1003 286.011 56.9417 285.847 56.783 285.711C57.803 285.224 58.7777 284.623 59.707 283.909C60.6363 283.184 61.4807 282.379 62.24 281.495C62.9993 280.611 63.634 279.693 64.144 278.741ZM76.775 272.349H81.892V273.505H76.775V272.349ZM81.399 272.349H82.674V285.745C82.674 286.13 82.623 286.425 82.521 286.629C82.419 286.833 82.2377 286.992 81.977 287.105C81.7163 287.196 81.3593 287.252 80.906 287.275C80.464 287.298 79.9087 287.309 79.24 287.309C79.2173 287.15 79.1663 286.946 79.087 286.697C79.0077 286.459 78.9227 286.261 78.832 286.102C79.3193 286.113 79.7727 286.119 80.192 286.119C80.6227 286.13 80.906 286.13 81.042 286.119C81.178 286.108 81.2687 286.074 81.314 286.017C81.3707 285.972 81.399 285.875 81.399 285.728V272.349ZM73.477 272.264L74.463 271.737C74.7123 272.066 74.9673 272.428 75.228 272.825C75.4887 273.222 75.7323 273.613 75.959 273.998C76.1857 274.372 76.367 274.706 76.503 275.001L75.449 275.613C75.3243 275.318 75.1543 274.978 74.939 274.593C74.7237 274.208 74.4857 273.811 74.225 273.403C73.9757 272.995 73.7263 272.615 73.477 272.264ZM72.746 275.154H73.987V287.36H72.746V275.154ZM70.825 271.822L72.015 272.145C71.7317 273.12 71.3973 274.089 71.012 275.052C70.638 276.015 70.2187 276.928 69.754 277.789C69.3007 278.639 68.8133 279.398 68.292 280.067C68.258 279.965 68.1957 279.835 68.105 279.676C68.0257 279.506 67.9407 279.342 67.85 279.183C67.7707 279.013 67.6913 278.877 67.612 278.775C68.054 278.197 68.4733 277.534 68.87 276.786C69.278 276.038 69.6463 275.239 69.975 274.389C70.315 273.539 70.5983 272.683 70.825 271.822ZM69.482 276.089L70.655 274.916L70.689 274.95V287.343H69.482V276.089Z" fill="black" fill-opacity="0.9" shape-rendering="crispEdges"/>
</g>
<rect width="150" height="56" transform="translate(225 254)" fill="white"/>
<path fill-rule="evenodd" clip-rule="evenodd" d="M343.454 276.581L344.515 275.52L350.293 281.298C350.684 281.689 350.684 282.322 350.293 282.712L344.515 288.491L343.454 287.43L348.879 282.005L343.454 276.581Z" fill="black" fill-opacity="0.3"/>
<mask id="mask2_456_1241" style="mask-type:luminance" maskUnits="userSpaceOnUse" x="343" y="275" width="8" height="14">
<path fill-rule="evenodd" clip-rule="evenodd" d="M343.454 276.581L344.515 275.52L350.293 281.298C350.684 281.689 350.684 282.322 350.293 282.712L344.515 288.491L343.454 287.43L348.879 282.005L343.454 276.581Z" fill="white"/>
</mask>
<g mask="url(#mask2_456_1241)">
</g>
<rect x="16" y="309.5" width="343" height="0.5" fill="black" fill-opacity="0.1"/>
<rect width="375" height="56" transform="translate(0 144)" fill="white"/>
<rect width="340" height="56" transform="translate(0 144)" fill="white"/>
<g filter="url(#filter3_d_456_1241)">
<path d="M22.97 165.868H31.3V171.75H22.868V170.747H30.093V166.871H22.97V165.868ZM24.126 173.144H25.282V175.694C25.282 175.875 25.3273 175.989 25.418 176.034C25.52 176.091 25.7353 176.119 26.064 176.119C26.1433 176.119 26.285 176.119 26.489 176.119C26.693 176.119 26.9197 176.119 27.169 176.119C27.4183 176.119 27.6507 176.119 27.866 176.119C28.0813 176.119 28.24 176.119 28.342 176.119C28.5233 176.119 28.6593 176.085 28.75 176.017C28.852 175.96 28.92 175.83 28.954 175.626C28.9993 175.411 29.0277 175.088 29.039 174.657C29.1523 174.748 29.3167 174.833 29.532 174.912C29.7473 174.991 29.9343 175.048 30.093 175.082C30.0477 175.66 29.9683 176.096 29.855 176.391C29.753 176.697 29.5887 176.907 29.362 177.02C29.1467 177.145 28.8463 177.207 28.461 177.207C28.3817 177.207 28.223 177.207 27.985 177.207C27.747 177.207 27.4863 177.207 27.203 177.207C26.9197 177.207 26.659 177.207 26.421 177.207C26.1943 177.207 26.0413 177.207 25.962 177.207C25.4747 177.207 25.095 177.162 24.823 177.071C24.5623 176.992 24.381 176.839 24.279 176.612C24.177 176.397 24.126 176.091 24.126 175.694V173.144ZM22.613 173.093L23.599 173.518C23.5083 173.858 23.3893 174.232 23.242 174.64C23.106 175.037 22.953 175.433 22.783 175.83C22.6243 176.215 22.443 176.561 22.239 176.867L21.27 176.238C21.4627 175.966 21.6383 175.649 21.797 175.286C21.967 174.923 22.12 174.549 22.256 174.164C22.4033 173.779 22.5223 173.422 22.613 173.093ZM25.197 172.43L25.979 171.767C26.2963 171.971 26.625 172.203 26.965 172.464C27.3163 172.713 27.645 172.968 27.951 173.229C28.257 173.49 28.5063 173.716 28.699 173.909L27.9 174.691C27.7073 174.476 27.458 174.238 27.152 173.977C26.846 173.705 26.523 173.433 26.183 173.161C25.843 172.889 25.5143 172.645 25.197 172.43ZM29.413 173.28L30.416 172.889C30.6767 173.229 30.9317 173.603 31.181 174.011C31.4303 174.408 31.6513 174.804 31.844 175.201C32.048 175.586 32.2067 175.932 32.32 176.238L31.266 176.697C31.164 176.38 31.0167 176.023 30.824 175.626C30.6313 175.229 30.4103 174.827 30.161 174.419C29.923 174.011 29.6737 173.631 29.413 173.28ZM23.361 168.265H30.722V169.234H23.361V168.265ZM17.377 162.451H21.372V163.607H18.516V177.36H17.377V162.451ZM21.049 162.451H21.253L21.457 162.4L22.273 162.893C22.1143 163.358 21.9387 163.856 21.746 164.389C21.5647 164.91 21.372 165.432 21.168 165.953C20.9753 166.463 20.7827 166.945 20.59 167.398C21.2133 168.101 21.6213 168.758 21.814 169.37C22.018 169.971 22.12 170.537 22.12 171.07C22.12 171.523 22.0633 171.92 21.95 172.26C21.848 172.6 21.678 172.855 21.44 173.025C21.3267 173.104 21.1907 173.172 21.032 173.229C20.8847 173.274 20.726 173.308 20.556 173.331C20.2047 173.365 19.8193 173.376 19.4 173.365C19.3887 173.206 19.3547 173.019 19.298 172.804C19.2527 172.589 19.1847 172.402 19.094 172.243C19.2867 172.254 19.4623 172.26 19.621 172.26C19.791 172.26 19.944 172.26 20.08 172.26C20.3067 172.249 20.488 172.198 20.624 172.107C20.7487 172.005 20.8337 171.852 20.879 171.648C20.9357 171.433 20.964 171.2 20.964 170.951C20.964 170.475 20.862 169.959 20.658 169.404C20.454 168.837 20.046 168.22 19.434 167.551C19.5927 167.166 19.7457 166.758 19.893 166.327C20.0403 165.885 20.1877 165.454 20.335 165.035C20.4823 164.604 20.6127 164.196 20.726 163.811C20.8507 163.426 20.9583 163.091 21.049 162.808V162.451ZM25.435 163.114H29.175V164.1H24.653L25.435 163.114ZM25.197 161.873L26.387 162.077C26.0017 162.791 25.52 163.516 24.942 164.253C24.3753 164.978 23.7067 165.664 22.936 166.31C22.868 166.231 22.783 166.14 22.681 166.038C22.5903 165.936 22.494 165.845 22.392 165.766C22.29 165.675 22.188 165.602 22.086 165.545C22.8113 165.001 23.4347 164.395 23.956 163.726C24.4773 163.057 24.891 162.44 25.197 161.873ZM28.818 163.114H29.09L29.26 163.063L30.042 163.573C29.8493 163.913 29.617 164.264 29.345 164.627C29.073 164.978 28.7953 165.318 28.512 165.647C28.24 165.964 27.9793 166.253 27.73 166.514C27.628 166.435 27.492 166.344 27.322 166.242C27.152 166.14 27.0047 166.055 26.88 165.987C27.1067 165.76 27.339 165.488 27.577 165.171C27.8263 164.854 28.0587 164.536 28.274 164.219C28.5007 163.89 28.682 163.596 28.818 163.335V163.114ZM37.165 163.131H38.406V177.309H37.165V163.131ZM33.85 166.684H41.415V167.908H33.85V166.684ZM37.199 167.177L38.049 167.551C37.845 168.163 37.5957 168.803 37.301 169.472C37.0063 170.141 36.6833 170.798 36.332 171.444C35.992 172.079 35.635 172.679 35.261 173.246C34.8983 173.801 34.5357 174.277 34.173 174.674C34.0937 174.493 33.986 174.283 33.85 174.045C33.714 173.807 33.5893 173.614 33.476 173.467C33.8273 173.116 34.1843 172.696 34.547 172.209C34.9097 171.71 35.261 171.178 35.601 170.611C35.941 170.033 36.247 169.455 36.519 168.877C36.791 168.288 37.0177 167.721 37.199 167.177ZM40.242 161.839L41.194 162.774C40.5933 163.023 39.8963 163.256 39.103 163.471C38.321 163.675 37.505 163.862 36.655 164.032C35.8163 164.191 35.0003 164.321 34.207 164.423C34.1843 164.287 34.1333 164.123 34.054 163.93C33.986 163.737 33.9123 163.579 33.833 163.454C34.6037 163.329 35.3857 163.188 36.179 163.029C36.9837 162.859 37.743 162.672 38.457 162.468C39.171 162.264 39.766 162.054 40.242 161.839ZM38.338 168.894C38.4853 168.996 38.695 169.177 38.967 169.438C39.2503 169.687 39.5507 169.965 39.868 170.271C40.1967 170.566 40.497 170.843 40.769 171.104C41.041 171.353 41.2337 171.535 41.347 171.648L40.565 172.634C40.4177 172.441 40.2193 172.203 39.97 171.92C39.7207 171.625 39.4487 171.325 39.154 171.019C38.8593 170.702 38.576 170.407 38.304 170.135C38.0433 169.863 37.828 169.648 37.658 169.489L38.338 168.894ZM43.863 162.06L45.308 162.315C45.1267 163.403 44.917 164.548 44.679 165.749C44.441 166.95 44.186 168.157 43.914 169.37C43.6533 170.571 43.3813 171.727 43.098 172.838C42.8147 173.937 42.5427 174.935 42.282 175.83L41.058 175.541C41.3187 174.657 41.585 173.66 41.857 172.549C42.129 171.427 42.3897 170.26 42.639 169.047C42.8883 167.834 43.1207 166.633 43.336 165.443C43.5513 164.242 43.727 163.114 43.863 162.06ZM39.596 175.286C40.2873 175.229 41.092 175.156 42.01 175.065C42.9393 174.963 43.931 174.861 44.985 174.759C46.0503 174.646 47.1157 174.527 48.181 174.402L48.198 175.575C47.212 175.711 46.2203 175.841 45.223 175.966C44.2257 176.091 43.268 176.21 42.35 176.323C41.4433 176.436 40.6217 176.538 39.885 176.629L39.596 175.286ZM45.461 170.407L46.668 170.033C47.076 170.77 47.4613 171.557 47.824 172.396C48.198 173.223 48.521 174.034 48.793 174.827C49.0763 175.62 49.2747 176.317 49.388 176.918L48.062 177.36C47.96 176.759 47.7787 176.062 47.518 175.269C47.2573 174.464 46.9457 173.643 46.583 172.804C46.2317 171.954 45.8577 171.155 45.461 170.407ZM50.799 165.698H55.78V166.888H50.799V165.698ZM52.72 161.72H53.961V177.343H52.72V161.72ZM56.307 164.95H63.396V166.191H56.307V164.95ZM62.92 164.95H64.144C64.144 164.95 64.144 164.995 64.144 165.086C64.144 165.165 64.1383 165.256 64.127 165.358C64.127 165.46 64.127 165.539 64.127 165.596C64.0817 167.489 64.0363 169.092 63.991 170.407C63.9457 171.71 63.889 172.776 63.821 173.603C63.753 174.43 63.668 175.071 63.566 175.524C63.4753 175.977 63.3563 176.3 63.209 176.493C63.039 176.72 62.8577 176.878 62.665 176.969C62.4723 177.071 62.2343 177.133 61.951 177.156C61.6903 177.19 61.3447 177.201 60.914 177.19C60.4947 177.19 60.0583 177.179 59.605 177.156C59.5937 176.963 59.554 176.748 59.486 176.51C59.4293 176.283 59.3387 176.085 59.214 175.915C59.7127 175.96 60.166 175.989 60.574 176C60.982 176 61.271 176 61.441 176C61.5997 176 61.73 175.983 61.832 175.949C61.934 175.915 62.0247 175.847 62.104 175.745C62.2287 175.609 62.3307 175.326 62.41 174.895C62.4893 174.464 62.5573 173.841 62.614 173.025C62.682 172.209 62.7387 171.166 62.784 169.897C62.8293 168.628 62.8747 167.075 62.92 165.239V164.95ZM56.562 167.942L57.718 168.163C57.5367 169.058 57.2873 169.931 56.97 170.781C56.6527 171.62 56.3013 172.334 55.916 172.923C55.848 172.866 55.7517 172.798 55.627 172.719C55.5137 172.628 55.3947 172.543 55.27 172.464C55.1453 172.373 55.0377 172.305 54.947 172.26C55.321 171.705 55.644 171.047 55.916 170.288C56.188 169.529 56.4033 168.747 56.562 167.942ZM64.246 168.214L65.334 167.993C65.4927 168.503 65.6513 169.058 65.81 169.659C65.98 170.248 66.1273 170.815 66.252 171.359C66.3767 171.903 66.4673 172.373 66.524 172.77L65.334 173.076C65.3 172.668 65.2263 172.186 65.113 171.631C64.9997 171.064 64.8693 170.486 64.722 169.897C64.5747 169.296 64.416 168.735 64.246 168.214ZM59.333 161.873H60.557V164.916C60.557 165.868 60.5117 166.877 60.421 167.942C60.3303 168.996 60.1263 170.073 59.809 171.172C59.503 172.271 59.027 173.348 58.381 174.402C57.735 175.456 56.8567 176.448 55.746 177.377C55.678 177.286 55.5817 177.184 55.457 177.071C55.3437 176.969 55.2247 176.861 55.1 176.748C54.9753 176.646 54.862 176.567 54.76 176.51C55.8367 175.637 56.681 174.708 57.293 173.722C57.905 172.736 58.3527 171.733 58.636 170.713C58.9307 169.693 59.1177 168.69 59.197 167.704C59.2877 166.718 59.333 165.789 59.333 164.916V161.873ZM74.514 162.978C74.888 165.154 75.432 167.132 76.146 168.911C76.8713 170.679 77.8347 172.192 79.036 173.45C80.2487 174.697 81.7673 175.649 83.592 176.306C83.49 176.385 83.3767 176.493 83.252 176.629C83.1387 176.765 83.031 176.901 82.929 177.037C82.827 177.173 82.742 177.298 82.674 177.411C81.2687 176.867 80.0447 176.153 79.002 175.269C77.9593 174.374 77.0697 173.325 76.333 172.124C75.6077 170.911 75.0013 169.557 74.514 168.061C74.0267 166.565 73.6243 164.939 73.307 163.182L74.514 162.978ZM76.214 162.519L77.285 162.06C77.523 162.434 77.7553 162.836 77.982 163.267C78.22 163.686 78.4297 164.1 78.611 164.508C78.8037 164.905 78.9453 165.262 79.036 165.579L77.88 166.106C77.7893 165.789 77.6533 165.426 77.472 165.018C77.302 164.599 77.1037 164.174 76.877 163.743C76.6617 163.301 76.4407 162.893 76.214 162.519ZM81.144 162.774L82.453 162.978C82.1697 164.587 81.807 166.117 81.365 167.568C80.9343 169.019 80.3677 170.362 79.665 171.597C78.9623 172.832 78.0727 173.949 76.996 174.946C75.9193 175.932 74.6047 176.776 73.052 177.479C72.9953 177.366 72.9217 177.247 72.831 177.122C72.7403 176.997 72.644 176.873 72.542 176.748C72.4513 176.623 72.3663 176.516 72.287 176.425C73.783 175.79 75.041 175.008 76.061 174.079C77.081 173.138 77.9253 172.084 78.594 170.917C79.2627 169.738 79.7953 168.469 80.192 167.109C80.5887 165.738 80.906 164.293 81.144 162.774ZM68.921 162.893L69.839 162.196C70.0997 162.457 70.366 162.74 70.638 163.046C70.9213 163.352 71.1877 163.652 71.437 163.947C71.6863 164.23 71.879 164.491 72.015 164.729L71.046 165.528C70.8987 165.29 70.706 165.018 70.468 164.712C70.2413 164.395 69.992 164.083 69.72 163.777C69.448 163.46 69.1817 163.165 68.921 162.893ZM70.179 176.918L69.958 175.728L70.332 175.184L73.46 173.025C73.5053 173.195 73.5677 173.388 73.647 173.603C73.7377 173.807 73.817 173.977 73.885 174.113C73.137 174.646 72.5307 175.076 72.066 175.405C71.6127 175.734 71.2613 175.989 71.012 176.17C70.7627 176.363 70.5813 176.51 70.468 176.612C70.3547 176.725 70.2583 176.827 70.179 176.918ZM67.782 167.041H71.233V168.282H67.782V167.041ZM70.179 176.918C70.1337 176.827 70.0657 176.72 69.975 176.595C69.8957 176.482 69.805 176.368 69.703 176.255C69.6123 176.153 69.5273 176.074 69.448 176.017C69.584 175.881 69.737 175.671 69.907 175.388C70.0883 175.093 70.179 174.725 70.179 174.283V167.041H71.42V175.201C71.42 175.201 71.3803 175.246 71.301 175.337C71.2217 175.428 71.1197 175.541 70.995 175.677C70.8703 175.802 70.7457 175.938 70.621 176.085C70.4963 176.244 70.3887 176.397 70.298 176.544C70.2187 176.691 70.179 176.816 70.179 176.918Z" fill="black" fill-opacity="0.9" shape-rendering="crispEdges"/>
</g>
<rect width="150" height="56" transform="translate(225 144)" fill="white"/>
<path fill-rule="evenodd" clip-rule="evenodd" d="M343.454 166.581L344.515 165.52L350.293 171.298C350.684 171.689 350.684 172.322 350.293 172.712L344.515 178.491L343.454 177.43L348.879 172.005L343.454 166.581Z" fill="black" fill-opacity="0.3"/>
<mask id="mask3_456_1241" style="mask-type:luminance" maskUnits="userSpaceOnUse" x="343" y="165" width="8" height="14">
<path fill-rule="evenodd" clip-rule="evenodd" d="M343.454 166.581L344.515 165.52L350.293 171.298C350.684 171.689 350.684 172.322 350.293 172.712L344.515 178.491L343.454 177.43L348.879 172.005L343.454 166.581Z" fill="white"/>
</mask>
<g mask="url(#mask3_456_1241)">
</g>
<rect x="16" y="199.5" width="343" height="0.5" fill="black" fill-opacity="0.1"/>
<defs>
<filter id="filter0_d_456_1241" x="14.3291" y="105.737" width="72.345" height="23.674" filterUnits="userSpaceOnUse" color-interpolation-filters="sRGB">
<feFlood flood-opacity="0" result="BackgroundImageFix"/>
<feColorMatrix in="SourceAlpha" type="matrix" values="0 0 0 0 0 0 0 0 0 0 0 0 0 0 0 0 0 0 127 0" result="hardAlpha"/>
<feOffset dy="4"/>
<feGaussianBlur stdDeviation="2"/>
<feComposite in2="hardAlpha" operator="out"/>
<feColorMatrix type="matrix" values="0 0 0 0 0 0 0 0 0 0 0 0 0 0 0 0 0 0 0.25 0"/>
<feBlend mode="normal" in2="BackgroundImageFix" result="effect1_dropShadow_456_1241"/>
<feBlend mode="normal" in="SourceGraphic" in2="effect1_dropShadow_456_1241" result="shape"/>
</filter>
<filter id="filter1_d_456_1241" x="12.5779" y="216.703" width="75.0142" height="23.776" filterUnits="userSpaceOnUse" color-interpolation-filters="sRGB">
<feFlood flood-opacity="0" result="BackgroundImageFix"/>
<feColorMatrix in="SourceAlpha" type="matrix" values="0 0 0 0 0 0 0 0 0 0 0 0 0 0 0 0 0 0 127 0" result="hardAlpha"/>
<feOffset dy="4"/>
<feGaussianBlur stdDeviation="2"/>
<feComposite in2="hardAlpha" operator="out"/>
<feColorMatrix type="matrix" values="0 0 0 0 0 0 0 0 0 0 0 0 0 0 0 0 0 0 0.25 0"/>
<feBlend mode="normal" in2="BackgroundImageFix" result="effect1_dropShadow_456_1241"/>
<feBlend mode="normal" in="SourceGraphic" in2="effect1_dropShadow_456_1241" result="shape"/>
</filter>
<filter id="filter2_d_456_1241" x="12.4761" y="271.737" width="74.198" height="23.674" filterUnits="userSpaceOnUse" color-interpolation-filters="sRGB">
<feFlood flood-opacity="0" result="BackgroundImageFix"/>
<feColorMatrix in="SourceAlpha" type="matrix" values="0 0 0 0 0 0 0 0 0 0 0 0 0 0 0 0 0 0 127 0" result="hardAlpha"/>
<feOffset dy="4"/>
<feGaussianBlur stdDeviation="2"/>
<feComposite in2="hardAlpha" operator="out"/>
<feColorMatrix type="matrix" values="0 0 0 0 0 0 0 0 0 0 0 0 0 0 0 0 0 0 0.25 0"/>
<feBlend mode="normal" in2="BackgroundImageFix" result="effect1_dropShadow_456_1241"/>
<feBlend mode="normal" in="SourceGraphic" in2="effect1_dropShadow_456_1241" result="shape"/>
</filter>
<filter id="filter3_d_456_1241" x="13.377" y="161.72" width="74.2151" height="23.759" filterUnits="userSpaceOnUse" color-interpolation-filters="sRGB">
<feFlood flood-opacity="0" result="BackgroundImageFix"/>
<feColorMatrix in="SourceAlpha" type="matrix" values="0 0 0 0 0 0 0 0 0 0 0 0 0 0 0 0 0 0 127 0" result="hardAlpha"/>
<feOffset dy="4"/>
<feGaussianBlur stdDeviation="2"/>
<feComposite in2="hardAlpha" operator="out"/>
<feColorMatrix type="matrix" values="0 0 0 0 0 0 0 0 0 0 0 0 0 0 0 0 0 0 0.25 0"/>
<feBlend mode="normal" in2="BackgroundImageFix" result="effect1_dropShadow_456_1241"/>
<feBlend mode="normal" in="SourceGraphic" in2="effect1_dropShadow_456_1241" result="shape"/>
</filter>
</defs>
</svg>
