<svg width="375" height="812" viewBox="0 0 375 812" fill="none" xmlns="http://www.w3.org/2000/svg">
<rect width="375" height="812" fill="white"/>
<rect width="375" height="88" fill="white"/>
<rect opacity="0.7" x="285" y="51" width="83" height="30" rx="15" fill="white"/>
<rect x="285.175" y="51.175" width="82.65" height="29.65" rx="14.825" stroke="#DEDEDE" stroke-width="0.35"/>
<path d="M307 62.75C308.795 62.75 310.25 64.2051 310.25 66C310.25 67.7949 308.795 69.25 307 69.25C305.205 69.25 303.75 67.7949 303.75 66C303.75 64.2051 305.205 62.75 307 62.75ZM299.75 64C300.855 64 301.75 64.8954 301.75 66C301.75 67.1046 300.855 68 299.75 68C298.645 68 297.75 67.1046 297.75 66C297.75 64.8954 298.645 64 299.75 64ZM314.25 64C315.355 64 316.25 64.8954 316.25 66C316.25 67.1046 315.355 68 314.25 68C313.145 68 312.25 67.1046 312.25 66C312.25 64.8954 313.145 64 314.25 64Z" fill="#191919"/>
<path d="M347 57.5C351.694 57.5 355.5 61.3056 355.5 66C355.5 70.6944 351.694 74.5 347 74.5C342.306 74.5 338.5 70.6944 338.5 66C338.5 61.3056 342.306 57.5 347 57.5ZM347 59.5C343.41 59.5 340.5 62.4101 340.5 66C340.5 69.5899 343.41 72.5 347 72.5C350.59 72.5 353.5 69.5899 353.5 66C353.5 62.4101 350.59 59.5 347 59.5ZM347 63C348.657 63 350 64.3431 350 66C350 67.6569 348.657 69 347 69C345.343 69 344 67.6569 344 66C344 64.3431 345.343 63 347 63Z" fill="#191919"/>
<path d="M326.5 57.5V74.5" stroke="#D2D2D2" stroke-width="0.35"/>
<path d="M155.081 61.545H156.339V73.36H155.081V61.545ZM155.268 58.553L156.186 57.941C156.469 58.213 156.775 58.519 157.104 58.859C157.433 59.199 157.744 59.5333 158.039 59.862C158.334 60.1793 158.577 60.457 158.77 60.695L157.801 61.409C157.62 61.1597 157.382 60.8707 157.087 60.542C156.804 60.2133 156.498 59.8733 156.169 59.522C155.852 59.1707 155.551 58.8477 155.268 58.553ZM159.535 58.672H168.511V59.879H159.535V58.672ZM167.644 58.672H168.919V71.575C168.919 71.9943 168.862 72.306 168.749 72.51C168.647 72.7253 168.466 72.8897 168.205 73.003C167.922 73.105 167.548 73.1673 167.083 73.19C166.618 73.224 166.04 73.241 165.349 73.241C165.326 73.0483 165.27 72.8273 165.179 72.578C165.1 72.3287 165.015 72.119 164.924 71.949C165.264 71.9603 165.593 71.9717 165.91 71.983C166.227 71.983 166.505 71.983 166.743 71.983C166.992 71.9717 167.162 71.966 167.253 71.966C167.4 71.966 167.502 71.9377 167.559 71.881C167.616 71.8243 167.644 71.7223 167.644 71.575V58.672ZM159.62 62.888H164.941V69.144H159.62V67.988H163.7V64.044H159.62V62.888ZM158.974 62.888H160.147V70.249H158.974V62.888ZM173.492 61.545V62.837H176.96V61.545H173.492ZM173.492 59.369V60.644H176.96V59.369H173.492ZM172.336 58.434H178.15V63.772H172.336V58.434ZM171.333 65.03H179.017V66.033H171.333V65.03ZM178.983 58.502H186.735V59.539H178.983V58.502ZM174.784 65.37H175.889V71.847L174.784 71.184V65.37ZM175.294 67.852H178.711V68.838H175.294V67.852ZM182.247 58.859L183.539 59.097C183.369 59.539 183.193 59.9867 183.012 60.44C182.842 60.882 182.683 61.2617 182.536 61.579L181.499 61.341C181.635 60.9783 181.771 60.5647 181.907 60.1C182.054 59.6353 182.168 59.2217 182.247 58.859ZM173.356 68.634C173.651 69.3593 174.03 69.943 174.495 70.385C174.971 70.8157 175.526 71.1443 176.161 71.371C176.807 71.5977 177.527 71.7507 178.32 71.83C179.125 71.898 180.003 71.932 180.955 71.932C181.114 71.932 181.38 71.932 181.754 71.932C182.139 71.932 182.581 71.932 183.08 71.932C183.579 71.9207 184.077 71.915 184.576 71.915C185.086 71.915 185.545 71.915 185.953 71.915C186.372 71.9037 186.678 71.898 186.871 71.898C186.78 72.0227 186.69 72.1927 186.599 72.408C186.508 72.6233 186.446 72.816 186.412 72.986H185.256H180.938C179.873 72.986 178.898 72.935 178.014 72.833C177.141 72.7423 176.354 72.5553 175.651 72.272C174.96 71.9887 174.359 71.5807 173.849 71.048C173.339 70.504 172.908 69.79 172.557 68.906L173.356 68.634ZM179.68 61.188H185.919V68.277H184.797V62.157H180.751V68.345H179.68V61.188ZM172.608 66.866L173.696 66.934C173.628 68.3053 173.469 69.5293 173.22 70.606C172.982 71.6713 172.574 72.578 171.996 73.326C171.939 73.2693 171.849 73.2013 171.724 73.122C171.611 73.0427 171.492 72.9633 171.367 72.884C171.254 72.8047 171.152 72.7423 171.061 72.697C171.628 72.0397 172.013 71.2123 172.217 70.215C172.432 69.2177 172.563 68.1013 172.608 66.866ZM182.315 62.99H183.403C183.369 64.18 183.29 65.2397 183.165 66.169C183.052 67.0983 182.842 67.903 182.536 68.583C182.241 69.263 181.805 69.8467 181.227 70.334C180.649 70.8213 179.873 71.2237 178.898 71.541C178.841 71.4163 178.751 71.269 178.626 71.099C178.513 70.929 178.399 70.793 178.286 70.691C179.181 70.419 179.89 70.0677 180.411 69.637C180.944 69.2063 181.34 68.685 181.601 68.073C181.862 67.461 182.037 66.7357 182.128 65.897C182.23 65.0583 182.292 64.0893 182.315 62.99ZM182.91 68.838L183.658 68.158C184.009 68.396 184.378 68.668 184.763 68.974C185.148 69.2687 185.511 69.5633 185.851 69.858C186.202 70.1527 186.491 70.419 186.718 70.657L185.936 71.439C185.721 71.201 185.443 70.929 185.103 70.623C184.763 70.317 184.4 70.011 184.015 69.705C183.641 69.3877 183.273 69.0987 182.91 68.838ZM191.036 58.791H202.885V60.049H191.036V58.791ZM191.189 63.092H200.93V64.333H191.189V63.092ZM190.39 58.791H191.682V63.432C191.682 64.146 191.654 64.928 191.597 65.778C191.54 66.628 191.433 67.5007 191.274 68.396C191.127 69.2913 190.906 70.164 190.611 71.014C190.316 71.8527 189.925 72.6233 189.438 73.326C189.37 73.2467 189.268 73.156 189.132 73.054C188.996 72.9633 188.86 72.8727 188.724 72.782C188.588 72.6913 188.469 72.6233 188.367 72.578C188.832 71.9093 189.2 71.1897 189.472 70.419C189.744 69.637 189.948 68.838 190.084 68.022C190.22 67.206 190.305 66.407 190.339 65.625C190.373 64.8317 190.39 64.1007 190.39 63.432V58.791ZM200.573 63.092H200.811L201.066 63.024L201.95 63.398C201.576 64.8033 201.055 66.05 200.386 67.138C199.717 68.2147 198.941 69.161 198.057 69.977C197.173 70.7817 196.204 71.4617 195.15 72.017C194.107 72.5723 193.014 73.02 191.869 73.36C191.812 73.2467 191.744 73.1163 191.665 72.969C191.586 72.8217 191.495 72.6743 191.393 72.527C191.291 72.391 191.2 72.2777 191.121 72.187C192.186 71.9037 193.218 71.5127 194.215 71.014C195.212 70.5153 196.13 69.8977 196.969 69.161C197.808 68.4243 198.533 67.5743 199.145 66.611C199.768 65.6363 200.244 64.5427 200.573 63.33V63.092ZM193.909 63.704C194.634 65.9367 195.79 67.7727 197.377 69.212C198.964 70.6513 201.026 71.6487 203.565 72.204C203.463 72.2947 203.355 72.4137 203.242 72.561C203.14 72.7083 203.038 72.85 202.936 72.986C202.845 73.1333 202.772 73.2693 202.715 73.394C200.97 72.952 199.445 72.3173 198.142 71.49C196.85 70.6513 195.756 69.6143 194.861 68.379C193.966 67.1437 193.24 65.7043 192.685 64.061L193.909 63.704ZM206.88 60.355H210.161V61.477H206.88V60.355ZM207.067 57.737L208.223 57.958C208.076 58.8647 207.889 59.7543 207.662 60.627C207.447 61.4997 207.197 62.3157 206.914 63.075C206.631 63.8343 206.308 64.5087 205.945 65.098C205.888 65.03 205.798 64.9507 205.673 64.86C205.56 64.758 205.441 64.6617 205.316 64.571C205.191 64.469 205.084 64.3953 204.993 64.35C205.344 63.806 205.65 63.1827 205.911 62.48C206.172 61.766 206.398 61.0067 206.591 60.202C206.784 59.3973 206.942 58.5757 207.067 57.737ZM209.889 60.355H210.093L210.297 60.304L211.113 60.559C210.909 61.1937 210.682 61.8397 210.433 62.497C210.184 63.143 209.929 63.687 209.668 64.129L208.699 63.789C208.914 63.381 209.13 62.8767 209.345 62.276C209.572 61.6753 209.753 61.1087 209.889 60.576V60.355ZM207.067 73.241L206.863 72.085L207.22 71.541L210.28 69.28C210.314 69.4387 210.371 69.62 210.45 69.824C210.529 70.0167 210.597 70.1753 210.654 70.3C209.917 70.8667 209.322 71.3257 208.869 71.677C208.427 72.0283 208.081 72.3003 207.832 72.493C207.594 72.697 207.418 72.85 207.305 72.952C207.203 73.0653 207.124 73.1617 207.067 73.241ZM207.067 73.241C207.022 73.1503 206.954 73.0483 206.863 72.935C206.784 72.833 206.699 72.731 206.608 72.629C206.517 72.527 206.432 72.4477 206.353 72.391C206.466 72.3003 206.597 72.1757 206.744 72.017C206.903 71.8583 207.039 71.6657 207.152 71.439C207.265 71.2123 207.322 70.9573 207.322 70.674V63.84H208.478V71.575C208.478 71.575 208.427 71.6147 208.325 71.694C208.234 71.7733 208.115 71.8753 207.968 72C207.832 72.136 207.696 72.2833 207.56 72.442C207.424 72.6007 207.305 72.748 207.203 72.884C207.112 73.02 207.067 73.139 207.067 73.241ZM210.807 63.228H220.837V64.231H210.807V63.228ZM215.023 57.737H216.196V63.619H215.023V57.737ZM212.745 59.76V61.222H218.559V59.76H212.745ZM211.674 58.859H219.681V62.123H211.674V58.859ZM211.589 65.183H219.494V70.487H218.27V66.22H212.779V70.487H211.589V65.183ZM215.907 71.32L216.485 70.487C216.95 70.657 217.426 70.8553 217.913 71.082C218.412 71.3087 218.876 71.5467 219.307 71.796C219.749 72.034 220.112 72.2607 220.395 72.476L219.766 73.394C219.494 73.1787 219.143 72.9407 218.712 72.68C218.281 72.4307 217.822 72.187 217.335 71.949C216.848 71.6997 216.372 71.49 215.907 71.32ZM214.921 67.087H216.128V68.77C216.128 69.212 216.054 69.654 215.907 70.096C215.771 70.538 215.522 70.963 215.159 71.371C214.796 71.779 214.286 72.153 213.629 72.493C212.983 72.8443 212.156 73.1503 211.147 73.411C211.113 73.3203 211.056 73.207 210.977 73.071C210.898 72.9463 210.807 72.8217 210.705 72.697C210.614 72.5723 210.535 72.476 210.467 72.408C211.408 72.1813 212.167 71.9263 212.745 71.643C213.334 71.3597 213.782 71.0593 214.088 70.742C214.405 70.4247 214.621 70.096 214.734 69.756C214.859 69.416 214.921 69.0703 214.921 68.719V67.087Z" fill="#191919"/>
<path d="M40.8786 18.7231C41.5205 18.7231 42.1293 18.8421 42.7048 19.0801C43.2803 19.3125 43.7894 19.6777 44.2321 20.1758C44.6804 20.6683 45.0318 21.3019 45.2863 22.0767C45.5409 22.8459 45.6682 23.7728 45.6682 24.8574V24.874C45.6682 26.2188 45.4745 27.3698 45.0871 28.3271C44.6997 29.2845 44.1436 30.0205 43.4186 30.5352C42.6992 31.0443 41.8387 31.2988 40.8371 31.2988C40.1011 31.2988 39.437 31.166 38.8449 30.9004C38.2583 30.6292 37.7713 30.2585 37.384 29.7881C37.0021 29.3122 36.7448 28.7699 36.612 28.1611L36.5954 28.0698H38.6955L38.7287 28.1528C38.8338 28.4295 38.9833 28.673 39.1769 28.8833C39.3762 29.0936 39.6141 29.2568 39.8908 29.373C40.173 29.4837 40.4885 29.5391 40.8371 29.5391C41.468 29.5391 41.9826 29.3537 42.381 28.9829C42.785 28.6066 43.0866 28.1058 43.2858 27.4805C43.4906 26.8496 43.6068 26.1523 43.6345 25.3887C43.64 25.3057 43.6428 25.2254 43.6428 25.1479C43.6428 25.0649 43.6428 24.9847 43.6428 24.9072L43.2692 22.9067C43.2692 22.453 43.1641 22.0407 42.9538 21.6699C42.7435 21.2992 42.4585 21.0059 42.0988 20.79C41.7446 20.5742 41.3434 20.4663 40.8952 20.4663C40.4636 20.4663 40.0679 20.5715 39.7082 20.7817C39.3485 20.992 39.0607 21.2798 38.8449 21.645C38.6291 22.0047 38.5212 22.4087 38.5212 22.8569V22.8735C38.5212 23.3384 38.6236 23.7507 38.8283 24.1104C39.0331 24.4645 39.3125 24.744 39.6667 24.9487C40.0209 25.1535 40.4248 25.2559 40.8786 25.2559C41.3324 25.2559 41.7391 25.1562 42.0988 24.957C42.4585 24.7578 42.7435 24.4811 42.9538 24.127C43.1641 23.7728 43.2692 23.3716 43.2692 22.9233V22.9067H43.7673V25.1147H43.4767C43.3329 25.4302 43.1198 25.7235 42.8376 25.9946C42.5554 26.2658 42.2067 26.4844 41.7917 26.6504C41.3822 26.8164 40.9007 26.8994 40.3474 26.8994C39.5837 26.8994 38.9085 26.7279 38.322 26.3848C37.7354 26.0417 37.2733 25.5713 36.9357 24.9736C36.6037 24.376 36.4377 23.7008 36.4377 22.9482V22.9316C36.4377 22.1182 36.6258 21.396 37.0021 20.7651C37.384 20.1287 37.9097 19.6307 38.5793 19.271C39.2544 18.9058 40.0209 18.7231 40.8786 18.7231ZM49.0287 29.3896C48.6524 29.3896 48.337 29.2651 48.0824 29.0161C47.8334 28.7616 47.7089 28.4517 47.7089 28.0864C47.7089 27.7157 47.8334 27.4058 48.0824 27.1567C48.337 26.9022 48.6524 26.7749 49.0287 26.7749C49.4105 26.7749 49.726 26.9022 49.975 27.1567C50.224 27.4058 50.3485 27.7157 50.3485 28.0864C50.3485 28.4517 50.224 28.7616 49.975 29.0161C49.726 29.2651 49.4105 29.3896 49.0287 29.3896ZM49.0287 23.2305C48.6524 23.2305 48.337 23.106 48.0824 22.8569C47.8334 22.6024 47.7089 22.2925 47.7089 21.9272C47.7089 21.5565 47.8334 21.2466 48.0824 20.9976C48.337 20.743 48.6524 20.6157 49.0287 20.6157C49.4105 20.6157 49.726 20.743 49.975 20.9976C50.224 21.2466 50.3485 21.5565 50.3485 21.9272C50.3485 22.2925 50.224 22.6024 49.975 22.8569C49.726 23.106 49.4105 23.2305 49.0287 23.2305ZM58.1998 31V28.7007H52.3395V26.9492C52.6549 26.4124 52.9703 25.8729 53.2857 25.3306C53.6067 24.7882 53.9304 24.2487 54.2569 23.7119C54.589 23.1696 54.9182 22.6356 55.2447 22.1099C55.5768 21.5786 55.906 21.0557 56.2325 20.541C56.5646 20.0208 56.8966 19.5145 57.2286 19.022H60.2418V26.9326H61.8605V28.7007H60.2418V31H58.1998ZM54.3316 26.9824H58.233V20.7319H58.1085C57.865 21.1082 57.6132 21.4956 57.3531 21.894C57.0986 22.2925 56.8412 22.6992 56.5812 23.1143C56.3211 23.5293 56.0637 23.9471 55.8092 24.3677C55.5546 24.7827 55.3028 25.2005 55.0538 25.6211C54.8048 26.0361 54.5641 26.4484 54.3316 26.8579V26.9824ZM66.408 31V21.1304H66.2586L63.2786 23.2305V21.2217L66.408 19.022H68.5413V31H66.408Z" fill="black"/>
<path opacity="0.35" d="M327 18.5H344C345.933 18.5 347.5 20.067 347.5 22V27C347.5 28.933 345.933 30.5 344 30.5H327C325.067 30.5 323.5 28.933 323.5 27V22C323.5 20.067 325.067 18.5 327 18.5Z" stroke="black"/>
<path opacity="0.4" d="M349 23V27.2203C349.849 26.8629 350.401 26.0314 350.401 25.1102C350.401 24.1889 349.849 23.3574 349 23Z" fill="black"/>
<path d="M325 22C325 20.8954 325.895 20 327 20H344C345.105 20 346 20.8954 346 22V27C346 28.1046 345.105 29 344 29H327C325.895 29 325 28.1046 325 27V22Z" fill="black"/>
<path d="M305.115 27.9189C306.535 26.6934 308.614 26.6935 310.034 27.9189C310.106 27.9849 310.147 28.0785 310.149 28.1768C310.151 28.275 310.114 28.3696 310.045 28.4385L307.821 30.7285C307.756 30.7958 307.668 30.8339 307.575 30.834C307.482 30.834 307.393 30.7958 307.328 30.7285L305.104 28.4385C305.036 28.3696 304.998 28.275 305 28.1768C305.002 28.0785 305.044 27.9848 305.115 27.9189ZM302.109 25.1787C305.168 22.2741 309.906 22.2741 312.965 25.1787C313.034 25.2468 313.073 25.3405 313.074 25.4385C313.075 25.5364 313.037 25.6308 312.97 25.7002L311.685 27.0254C311.552 27.1607 311.338 27.164 311.202 27.0322C310.198 26.1038 308.891 25.5898 307.536 25.5898C306.182 25.5904 304.876 26.1043 303.872 27.0322C303.736 27.164 303.522 27.1607 303.39 27.0254L302.104 25.7002C302.037 25.6308 301.999 25.5364 302 25.4385C302.001 25.3405 302.04 25.2468 302.109 25.1787ZM299.107 22.4424C303.799 17.8528 311.201 17.8528 315.893 22.4424C315.96 22.5106 315.999 22.6039 316 22.7012C316 22.7983 315.963 22.892 315.896 22.9609L314.609 24.2861C314.477 24.4221 314.262 24.4238 314.127 24.29C312.339 22.5553 309.967 21.588 307.5 21.5879C305.033 21.588 302.661 22.5553 300.873 24.29C300.738 24.4239 300.523 24.4223 300.391 24.2861L299.104 22.9609C299.037 22.892 299 22.7982 299 22.7012C299.001 22.6039 299.039 22.5105 299.107 22.4424Z" fill="black"/>
<path d="M283 22C283 21.4477 283.448 21 284 21H285C285.552 21 286 21.4477 286 22V30C286 30.5523 285.552 31 285 31H284C283.448 31 283 30.5523 283 30V22Z" fill="black"/>
<path d="M288 20C288 19.4477 288.448 19 289 19H290C290.552 19 291 19.4477 291 20V30C291 30.5523 290.552 31 290 31H289C288.448 31 288 30.5523 288 30V20Z" fill="black"/>
<path d="M278 25.5C278 24.9477 278.448 24.5 279 24.5H280C280.552 24.5 281 24.9477 281 25.5V30C281 30.5523 280.552 31 280 31H279C278.448 31 278 30.5523 278 30V25.5Z" fill="black"/>
<path d="M273 28C273 27.4477 273.448 27 274 27H275C275.552 27 276 27.4477 276 28V30C276 30.5523 275.552 31 275 31H274C273.448 31 273 30.5523 273 30V28Z" fill="black"/>
<path d="M32 58L27 63M27 63L32 68M27 63H37M19.5 63C19.5 56.0964 25.0964 50.5 32 50.5C38.9036 50.5 44.5 56.0964 44.5 63C44.5 69.9036 38.9036 75.5 32 75.5C25.0964 75.5 19.5 69.9036 19.5 63Z" stroke="#0884FF" stroke-width="2.5" stroke-linecap="round" stroke-linejoin="round"/>
<path d="M26.378 101.212H29.106V110.98H26.378V101.212ZM24.156 98.506V99.892H30.734V98.506H24.156ZM21.626 96.658H33.418V101.74H21.626V96.658ZM19.514 103.06H34.32V105.414H22.198V109.99H19.514V103.06ZM33.066 103.06H35.794V107.592C35.794 108.193 35.7133 108.67 35.552 109.022C35.4053 109.374 35.112 109.653 34.672 109.858C34.2173 110.034 33.6893 110.137 33.088 110.166C32.4867 110.21 31.7973 110.232 31.02 110.232C30.9613 109.88 30.844 109.477 30.668 109.022C30.5067 108.567 30.338 108.171 30.162 107.834C30.4847 107.849 30.8147 107.863 31.152 107.878C31.504 107.878 31.812 107.878 32.076 107.878C32.3547 107.878 32.538 107.878 32.626 107.878C32.802 107.878 32.9193 107.856 32.978 107.812C33.0367 107.768 33.066 107.68 33.066 107.548V103.06ZM26.114 90.278H28.842V94.348H26.114V90.278ZM18.062 93.314H37.048V98.638H34.408V95.602H20.592V98.638H18.062V93.314ZM19.8 91.378L22.22 90.432C22.528 90.784 22.8287 91.18 23.122 91.62C23.43 92.06 23.6573 92.456 23.804 92.808L21.296 93.908C21.164 93.556 20.9587 93.1453 20.68 92.676C20.4013 92.192 20.108 91.7593 19.8 91.378ZM32.67 90.476L35.53 91.312C35.134 91.7813 34.7453 92.2213 34.364 92.632C33.9827 93.0427 33.638 93.3947 33.33 93.688L31.086 92.896C31.2767 92.6613 31.4673 92.4047 31.658 92.126C31.8633 91.8327 32.054 91.5467 32.23 91.268C32.4207 90.9747 32.5673 90.7107 32.67 90.476ZM49.456 102.246H52.052V107.064C52.052 107.431 52.118 107.665 52.25 107.768C52.3967 107.856 52.7193 107.9 53.218 107.9C53.3353 107.9 53.5187 107.9 53.768 107.9C54.032 107.9 54.318 107.9 54.626 107.9C54.934 107.9 55.22 107.9 55.484 107.9C55.748 107.9 55.9533 107.9 56.1 107.9C56.4227 107.9 56.6647 107.827 56.826 107.68C56.9873 107.533 57.0973 107.233 57.156 106.778C57.2293 106.323 57.2807 105.634 57.31 104.71C57.5007 104.842 57.7353 104.981 58.014 105.128C58.3073 105.26 58.6007 105.377 58.894 105.48C59.202 105.583 59.4733 105.663 59.708 105.722C59.6053 106.954 59.4367 107.9 59.202 108.56C58.982 109.22 58.6447 109.675 58.19 109.924C57.7353 110.188 57.112 110.32 56.32 110.32C56.2027 110.32 56.0267 110.32 55.792 110.32C55.572 110.32 55.3153 110.32 55.022 110.32C54.7433 110.32 54.4573 110.32 54.164 110.32C53.8853 110.32 53.6287 110.32 53.394 110.32C53.174 110.32 53.0127 110.32 52.91 110.32C52.03 110.32 51.3407 110.225 50.842 110.034C50.3433 109.858 49.984 109.528 49.764 109.044C49.5587 108.575 49.456 107.929 49.456 107.108V102.246ZM47.916 95.646H50.71C50.6513 97.2153 50.556 98.6747 50.424 100.024C50.3067 101.373 50.072 102.62 49.72 103.764C49.3827 104.893 48.862 105.913 48.158 106.822C47.454 107.731 46.5007 108.538 45.298 109.242C44.11 109.946 42.5993 110.54 40.766 111.024C40.634 110.672 40.414 110.269 40.106 109.814C39.798 109.359 39.5047 108.993 39.226 108.714C40.898 108.318 42.2693 107.834 43.34 107.262C44.4107 106.69 45.2467 106.03 45.848 105.282C46.464 104.519 46.9113 103.661 47.19 102.708C47.4687 101.74 47.6447 100.669 47.718 99.496C47.806 98.3227 47.872 97.0393 47.916 95.646ZM41.91 91.312H57.068V104.072H54.186V93.996H44.66V104.072H41.91V91.312ZM62.128 95.602H64.746V110.936H62.128V95.602ZM62.304 91.73L64.196 90.454C64.5627 90.8207 64.9587 91.2313 65.384 91.686C65.8093 92.1407 66.22 92.5807 66.616 93.006C67.0267 93.4313 67.3567 93.8053 67.606 94.128L65.582 95.58C65.3473 95.2427 65.0393 94.854 64.658 94.414C64.2913 93.974 63.8953 93.5193 63.47 93.05C63.0447 92.566 62.656 92.126 62.304 91.73ZM68.112 91.4H80.102V93.842H68.112V91.4ZM78.254 91.4H80.872V107.812C80.872 108.531 80.784 109.081 80.608 109.462C80.4467 109.858 80.146 110.173 79.706 110.408C79.266 110.599 78.716 110.723 78.056 110.782C77.4107 110.841 76.6187 110.863 75.68 110.848C75.636 110.481 75.5333 110.041 75.372 109.528C75.2107 109.015 75.042 108.589 74.866 108.252C75.2327 108.267 75.614 108.281 76.01 108.296C76.406 108.311 76.758 108.318 77.066 108.318C77.3887 108.318 77.6087 108.318 77.726 108.318C77.9313 108.303 78.0707 108.259 78.144 108.186C78.2173 108.098 78.254 107.959 78.254 107.768V91.4ZM68.596 97.098H75.57V105.48H68.596V103.126H72.996V99.452H68.596V97.098ZM67.276 97.098H69.652V106.734H67.276V97.098ZM86.812 95.646V96.68H90.068V95.646H86.812ZM86.812 92.94V93.974H90.068V92.94H86.812ZM84.48 91.158H92.51V98.462H84.48V91.158ZM83.468 99.738H93.456V101.652H83.468V99.738ZM93.39 91.202H103.73V93.292H93.39V91.202ZM87.582 100.354H89.804V109.198L87.582 107.922V100.354ZM88.726 103.434H92.994V105.348H88.726V103.434ZM97.526 91.708L100.166 92.28C99.8727 92.9107 99.5793 93.534 99.286 94.15C99.0073 94.7513 98.7507 95.2647 98.516 95.69L96.448 95.14C96.6533 94.656 96.8587 94.0913 97.064 93.446C97.2693 92.8007 97.4233 92.2213 97.526 91.708ZM86.24 104.358C86.5627 105.282 86.966 106.015 87.45 106.558C87.9487 107.101 88.5427 107.511 89.232 107.79C89.936 108.069 90.7353 108.252 91.63 108.34C92.5393 108.413 93.5513 108.45 94.666 108.45C94.9593 108.45 95.4067 108.45 96.008 108.45C96.6093 108.45 97.2913 108.45 98.054 108.45C98.8167 108.45 99.5793 108.45 100.342 108.45C101.105 108.435 101.809 108.421 102.454 108.406C103.099 108.391 103.598 108.384 103.95 108.384C103.774 108.619 103.598 108.956 103.422 109.396C103.261 109.836 103.151 110.217 103.092 110.54H101.42H94.644C93.2947 110.54 92.0847 110.474 91.014 110.342C89.9433 110.21 89.0047 109.946 88.198 109.55C87.3913 109.169 86.702 108.597 86.13 107.834C85.558 107.071 85.074 106.067 84.678 104.82L86.24 104.358ZM94.072 94.876H102.894V103.962H100.672V96.746H96.228V104.094H94.072V94.876ZM84.568 102.422L86.702 102.576C86.6287 104.321 86.46 105.913 86.196 107.35C85.932 108.773 85.4553 109.975 84.766 110.958C84.634 110.855 84.4507 110.723 84.216 110.562C83.996 110.401 83.7687 110.247 83.534 110.1C83.2993 109.953 83.1013 109.836 82.94 109.748C83.5853 108.912 84.0107 107.863 84.216 106.602C84.4213 105.326 84.5387 103.933 84.568 102.422ZM97.46 97.626H99.616C99.5867 99.122 99.4987 100.449 99.352 101.608C99.22 102.752 98.956 103.757 98.56 104.622C98.1787 105.473 97.5993 106.206 96.822 106.822C96.0447 107.423 95.0033 107.929 93.698 108.34C93.5953 108.076 93.4193 107.775 93.17 107.438C92.9353 107.086 92.7153 106.815 92.51 106.624C93.6393 106.287 94.534 105.876 95.194 105.392C95.854 104.893 96.338 104.292 96.646 103.588C96.954 102.884 97.1593 102.041 97.262 101.058C97.3647 100.075 97.4307 98.9313 97.46 97.626ZM98.582 105.282L100.012 103.852C100.423 104.131 100.863 104.446 101.332 104.798C101.816 105.15 102.278 105.502 102.718 105.854C103.158 106.206 103.525 106.514 103.818 106.778L102.278 108.406C102.014 108.127 101.669 107.805 101.244 107.438C100.819 107.071 100.371 106.697 99.902 106.316C99.4327 105.935 98.9927 105.59 98.582 105.282Z" fill="black" fill-opacity="0.9"/>
<rect width="375" height="56" transform="translate(0 133)" fill="white"/>
<rect width="340" height="56" transform="translate(0 133)" fill="white"/>
<g filter="url(#filter0_d_328_540)">
<path d="M25.741 163.436H31.045V164.643H25.741V163.436ZM25.044 152.556H31.708V165.663H30.433V153.763H26.268V165.935H25.044V152.556ZM16.748 154.188H23.055V155.429H16.748V154.188ZM19.621 150.703L20.879 150.856C20.6863 151.706 20.471 152.613 20.233 153.576C20.0063 154.539 19.7683 155.514 19.519 156.5C19.281 157.475 19.0373 158.41 18.788 159.305C18.55 160.189 18.329 160.982 18.125 161.685L17.037 161.158C17.241 160.512 17.4563 159.758 17.683 158.897C17.921 158.036 18.1533 157.129 18.38 156.177C18.618 155.225 18.8447 154.279 19.06 153.338C19.2753 152.397 19.4623 151.519 19.621 150.703ZM17.615 160.512L18.312 159.594C18.8673 159.877 19.434 160.195 20.012 160.546C20.6013 160.897 21.168 161.266 21.712 161.651C22.2673 162.036 22.7717 162.422 23.225 162.807C23.6897 163.192 24.0693 163.561 24.364 163.912L23.599 164.983C23.3043 164.632 22.9303 164.263 22.477 163.878C22.035 163.481 21.542 163.085 20.998 162.688C20.454 162.28 19.893 161.895 19.315 161.532C18.737 161.158 18.1703 160.818 17.615 160.512ZM22.698 154.188H22.919L23.14 154.171L23.939 154.324C23.7577 156.602 23.4063 158.529 22.885 160.104C22.3637 161.679 21.6723 162.971 20.811 163.98C19.961 164.977 18.941 165.776 17.751 166.377C17.6717 166.218 17.5583 166.037 17.411 165.833C17.2637 165.629 17.122 165.459 16.986 165.323C18.0627 164.847 18.9977 164.144 19.791 163.215C20.5957 162.286 21.2417 161.101 21.729 159.662C22.2163 158.211 22.5393 156.477 22.698 154.46V154.188ZM38.78 152.369H49.371V153.593H38.78V152.369ZM46.838 152.828H48.113V164.609C48.113 165.051 48.0507 165.385 47.926 165.612C47.8013 165.839 47.5803 166.009 47.263 166.122C46.957 166.213 46.5207 166.269 45.954 166.292C45.3873 166.326 44.6847 166.343 43.846 166.343C43.8233 166.15 43.7667 165.929 43.676 165.68C43.5853 165.431 43.489 165.21 43.387 165.017C43.8403 165.028 44.271 165.04 44.679 165.051C45.087 165.062 45.4383 165.062 45.733 165.051C46.039 165.051 46.2543 165.045 46.379 165.034C46.5603 165.034 46.6793 165.006 46.736 164.949C46.804 164.881 46.838 164.762 46.838 164.592V152.828ZM39.273 155.99H40.48V163.062H39.273V155.99ZM39.834 155.99H44.611V161.872H39.834V160.75H43.421V157.129H39.834V155.99ZM37.539 150.737L38.729 151.094C38.389 152.046 37.9867 152.987 37.522 153.916C37.0687 154.834 36.57 155.701 36.026 156.517C35.4933 157.333 34.938 158.064 34.36 158.71C34.3147 158.608 34.2467 158.478 34.156 158.319C34.0767 158.16 33.986 158.002 33.884 157.843C33.7933 157.673 33.7083 157.543 33.629 157.452C34.1617 156.897 34.666 156.262 35.142 155.548C35.6293 154.823 36.077 154.052 36.485 153.236C36.893 152.42 37.2443 151.587 37.539 150.737ZM35.941 155.174L37.182 153.916L37.199 153.933V166.343H35.941V155.174ZM52.074 151.808L52.907 151.026C53.213 151.275 53.5303 151.553 53.859 151.859C54.199 152.165 54.5163 152.471 54.811 152.777C55.1057 153.072 55.338 153.338 55.508 153.576L54.641 154.477C54.471 154.228 54.2387 153.95 53.944 153.644C53.6607 153.338 53.3547 153.026 53.026 152.709C52.6973 152.38 52.38 152.08 52.074 151.808ZM52.975 166.02L52.737 164.864L53.06 164.354L56.256 162.025C56.3013 162.195 56.3693 162.388 56.46 162.603C56.562 162.807 56.647 162.971 56.715 163.096C55.967 163.651 55.355 164.105 54.879 164.456C54.4143 164.796 54.0573 165.062 53.808 165.255C53.5587 165.459 53.3717 165.612 53.247 165.714C53.1337 165.827 53.043 165.929 52.975 166.02ZM50.731 156.058H53.757V157.282H50.731V156.058ZM58.704 151.332H63.141V152.522H58.704V151.332ZM56.528 158.234H64.467V159.424H56.528V158.234ZM64.059 158.234H64.297L64.535 158.183L65.317 158.523C64.9657 159.634 64.4897 160.62 63.889 161.481C63.2997 162.342 62.6083 163.09 61.815 163.725C61.033 164.36 60.183 164.892 59.265 165.323C58.3583 165.754 57.4063 166.099 56.409 166.36C56.3637 166.201 56.2787 166.009 56.154 165.782C56.0293 165.567 55.9103 165.391 55.797 165.255C56.715 165.04 57.6047 164.739 58.466 164.354C59.3273 163.969 60.1263 163.498 60.863 162.943C61.5997 162.376 62.24 161.719 62.784 160.971C63.3393 160.223 63.7643 159.379 64.059 158.438V158.234ZM58.245 159.135C58.6983 160.166 59.3103 161.096 60.081 161.923C60.8517 162.75 61.7697 163.447 62.835 164.014C63.9003 164.581 65.079 165 66.371 165.272C66.2803 165.363 66.184 165.476 66.082 165.612C65.98 165.748 65.8837 165.884 65.793 166.02C65.7023 166.156 65.6343 166.286 65.589 166.411C63.583 165.924 61.8717 165.091 60.455 163.912C59.0383 162.733 57.9447 161.266 57.174 159.509L58.245 159.135ZM58.347 151.332H59.554V153.253C59.554 153.774 59.4747 154.318 59.316 154.885C59.1573 155.452 58.8627 155.99 58.432 156.5C58.0013 157.01 57.378 157.463 56.562 157.86C56.5053 157.769 56.426 157.667 56.324 157.554C56.222 157.429 56.1143 157.31 56.001 157.197C55.899 157.072 55.8083 156.976 55.729 156.908C56.477 156.568 57.038 156.194 57.412 155.786C57.786 155.367 58.0353 154.942 58.16 154.511C58.2847 154.069 58.347 153.638 58.347 153.219V151.332ZM62.563 151.332H63.77V155.276C63.77 155.525 63.787 155.695 63.821 155.786C63.855 155.877 63.94 155.922 64.076 155.922C64.144 155.922 64.2573 155.922 64.416 155.922C64.5747 155.922 64.7333 155.922 64.892 155.922C65.062 155.922 65.181 155.922 65.249 155.922C65.3737 155.922 65.5097 155.916 65.657 155.905C65.8157 155.882 65.946 155.86 66.048 155.837C66.0593 155.996 66.0763 156.183 66.099 156.398C66.1217 156.613 66.1443 156.795 66.167 156.942C66.065 156.976 65.929 156.999 65.759 157.01C65.6003 157.021 65.436 157.027 65.266 157.027C65.1867 157.027 65.0563 157.027 64.875 157.027C64.6937 157.027 64.518 157.027 64.348 157.027C64.178 157.027 64.059 157.027 63.991 157.027C63.5943 157.027 63.294 156.97 63.09 156.857C62.886 156.744 62.7443 156.557 62.665 156.296C62.597 156.035 62.563 155.69 62.563 155.259V151.332ZM52.975 166.02C52.941 165.918 52.8843 165.799 52.805 165.663C52.7257 165.527 52.635 165.391 52.533 165.255C52.4423 165.119 52.3573 165.011 52.278 164.932C52.3913 164.864 52.5103 164.756 52.635 164.609C52.771 164.462 52.8843 164.286 52.975 164.082C53.077 163.878 53.128 163.646 53.128 163.385V156.058H54.369V164.49C54.369 164.49 54.2953 164.547 54.148 164.66C54.012 164.762 53.8533 164.892 53.672 165.051C53.4907 165.221 53.3263 165.391 53.179 165.561C53.043 165.742 52.975 165.895 52.975 166.02ZM78.033 152.352V153.882H80.906V152.352H78.033ZM74.055 152.352V153.882H76.86V152.352H74.055ZM70.179 152.352V153.882H72.882V152.352H70.179ZM68.955 151.434H82.181V154.817H68.955V151.434ZM68.156 155.752H82.861V156.755H68.156V155.752ZM69.635 164.626H83.303V165.646H69.635V164.626ZM69.091 158.013H70.383V166.377H69.091V158.013ZM73.307 160.223V161.175H80.226V160.223H73.307ZM73.307 161.94V162.892H80.226V161.94H73.307ZM73.307 158.54V159.458H80.226V158.54H73.307ZM72.1 157.758H81.45V163.674H72.1V157.758ZM75.126 154.562L76.401 154.664C76.3217 155.242 76.2253 155.86 76.112 156.517C76.01 157.163 75.908 157.713 75.806 158.166H74.565C74.667 157.679 74.769 157.101 74.871 156.432C74.973 155.763 75.058 155.14 75.126 154.562ZM87.842 164.898H97.243V165.816H87.842V164.898ZM87.06 162.246H98.042V166.343H96.733V163.181H88.318V166.36H87.06V162.246ZM85.343 151.927H99.708V152.896H85.343V151.927ZM86.567 154.069H98.569V155.021H86.567V154.069ZM84.816 160.274H100.167V161.311H84.816V160.274ZM91.803 150.703H93.112V154.46H91.803V150.703ZM88.573 159.169L89.712 158.846C89.882 159.073 90.035 159.328 90.171 159.611C90.3183 159.894 90.4203 160.144 90.477 160.359L89.253 160.733C89.219 160.518 89.134 160.263 88.998 159.968C88.862 159.662 88.7203 159.396 88.573 159.169ZM95.152 158.778L96.512 159.067C96.3307 159.384 96.1437 159.69 95.951 159.985C95.7583 160.268 95.5827 160.523 95.424 160.75L94.353 160.461C94.489 160.223 94.6363 159.945 94.795 159.628C94.9537 159.299 95.0727 159.016 95.152 158.778ZM88.573 156.755V158.115H96.427V156.755H88.573ZM87.349 155.871H97.702V158.999H87.349V155.871ZM108.599 151.587H116.079V152.777H108.599V151.587ZM108.021 157.571H117.371V158.778H108.021V157.571ZM112.033 155.31H113.308V164.745C113.308 165.13 113.257 165.425 113.155 165.629C113.053 165.833 112.866 165.992 112.594 166.105C112.322 166.196 111.959 166.252 111.506 166.275C111.053 166.309 110.486 166.326 109.806 166.326C109.772 166.156 109.704 165.946 109.602 165.697C109.511 165.459 109.421 165.249 109.33 165.068C109.874 165.079 110.361 165.085 110.792 165.085C111.223 165.096 111.512 165.096 111.659 165.085C111.806 165.074 111.903 165.045 111.948 165C112.005 164.955 112.033 164.87 112.033 164.745V155.31ZM115.62 151.587H115.926L116.181 151.519L117.031 152.131C116.691 152.618 116.3 153.117 115.858 153.627C115.416 154.126 114.951 154.602 114.464 155.055C113.988 155.508 113.518 155.911 113.053 156.262C112.962 156.137 112.838 156.001 112.679 155.854C112.532 155.695 112.407 155.576 112.305 155.497C112.713 155.191 113.127 154.828 113.546 154.409C113.965 153.978 114.356 153.542 114.719 153.1C115.093 152.658 115.393 152.25 115.62 151.876V151.587ZM101.731 154.222H107.341V155.429H101.731V154.222ZM104.298 150.72L105.522 150.856C105.352 151.706 105.165 152.613 104.961 153.576C104.757 154.539 104.542 155.508 104.315 156.483C104.088 157.458 103.867 158.393 103.652 159.288C103.437 160.183 103.227 160.982 103.023 161.685L101.969 161.107C102.15 160.461 102.343 159.713 102.547 158.863C102.762 158.002 102.978 157.101 103.193 156.16C103.408 155.208 103.612 154.267 103.805 153.338C103.998 152.397 104.162 151.525 104.298 150.72ZM102.581 160.58L103.295 159.679C103.93 160.03 104.581 160.438 105.25 160.903C105.919 161.356 106.536 161.821 107.103 162.297C107.681 162.773 108.14 163.221 108.48 163.64L107.698 164.677C107.369 164.258 106.922 163.799 106.355 163.3C105.8 162.801 105.193 162.314 104.536 161.838C103.879 161.362 103.227 160.943 102.581 160.58ZM106.916 154.222H107.12L107.341 154.188L108.106 154.341C107.959 156.528 107.653 158.41 107.188 159.985C106.735 161.549 106.128 162.852 105.369 163.895C104.61 164.938 103.709 165.771 102.666 166.394C102.587 166.235 102.468 166.054 102.309 165.85C102.162 165.657 102.02 165.499 101.884 165.374C102.825 164.864 103.646 164.127 104.349 163.164C105.052 162.189 105.618 160.982 106.049 159.543C106.48 158.092 106.769 156.409 106.916 154.494V154.222ZM125.565 160.886C125.474 160.421 125.491 160.002 125.616 159.628C125.752 159.254 125.95 158.92 126.211 158.625C126.483 158.319 126.778 158.041 127.095 157.792C127.424 157.531 127.735 157.276 128.03 157.027C128.325 156.778 128.568 156.523 128.761 156.262C128.954 155.99 129.05 155.695 129.05 155.378C129.05 154.981 128.954 154.63 128.761 154.324C128.568 154.018 128.285 153.78 127.911 153.61C127.537 153.429 127.055 153.338 126.466 153.338C125.888 153.338 125.327 153.468 124.783 153.729C124.25 153.978 123.74 154.364 123.253 154.885L122.335 154.035C122.902 153.434 123.531 152.958 124.222 152.607C124.913 152.244 125.718 152.063 126.636 152.063C127.441 152.063 128.132 152.193 128.71 152.454C129.299 152.715 129.753 153.083 130.07 153.559C130.399 154.024 130.563 154.585 130.563 155.242C130.563 155.673 130.467 156.052 130.274 156.381C130.081 156.71 129.832 157.01 129.526 157.282C129.231 157.554 128.92 157.82 128.591 158.081C128.262 158.33 127.956 158.591 127.673 158.863C127.401 159.135 127.191 159.435 127.044 159.764C126.908 160.093 126.88 160.467 126.959 160.886H125.565ZM126.296 165.085C125.99 165.085 125.729 164.983 125.514 164.779C125.299 164.575 125.191 164.303 125.191 163.963C125.191 163.623 125.299 163.351 125.514 163.147C125.729 162.932 125.99 162.824 126.296 162.824C126.591 162.824 126.846 162.932 127.061 163.147C127.276 163.351 127.384 163.623 127.384 163.963C127.384 164.303 127.276 164.575 127.061 164.779C126.846 164.983 126.591 165.085 126.296 165.085Z" fill="black" fill-opacity="0.9" shape-rendering="crispEdges"/>
</g>
<rect width="150" height="56" transform="translate(225 133)" fill="white"/>
<path fill-rule="evenodd" clip-rule="evenodd" d="M343.454 155.581L344.515 154.52L350.293 160.298C350.684 160.689 350.684 161.322 350.293 161.712L344.515 167.491L343.454 166.43L348.879 161.005L343.454 155.581Z" fill="black" fill-opacity="0.3"/>
<mask id="mask0_328_540" style="mask-type:luminance" maskUnits="userSpaceOnUse" x="343" y="154" width="8" height="14">
<path fill-rule="evenodd" clip-rule="evenodd" d="M343.454 155.581L344.515 154.52L350.293 160.298C350.684 160.689 350.684 161.322 350.293 161.712L344.515 167.491L343.454 166.43L348.879 161.005L343.454 155.581Z" fill="white"/>
</mask>
<g mask="url(#mask0_328_540)">
</g>
<rect x="16" y="188.5" width="343" height="0.5" fill="black" fill-opacity="0.1"/>
<rect width="375" height="56" transform="translate(0 244)" fill="white"/>
<rect width="340" height="56" transform="translate(0 244)" fill="white"/>
<g filter="url(#filter1_d_328_540)">
<path d="M25.741 274.436H31.045V275.643H25.741V274.436ZM25.044 263.556H31.708V276.663H30.433V264.763H26.268V276.935H25.044V263.556ZM16.748 265.188H23.055V266.429H16.748V265.188ZM19.621 261.703L20.879 261.856C20.6863 262.706 20.471 263.613 20.233 264.576C20.0063 265.539 19.7683 266.514 19.519 267.5C19.281 268.475 19.0373 269.41 18.788 270.305C18.55 271.189 18.329 271.982 18.125 272.685L17.037 272.158C17.241 271.512 17.4563 270.758 17.683 269.897C17.921 269.036 18.1533 268.129 18.38 267.177C18.618 266.225 18.8447 265.279 19.06 264.338C19.2753 263.397 19.4623 262.519 19.621 261.703ZM17.615 271.512L18.312 270.594C18.8673 270.877 19.434 271.195 20.012 271.546C20.6013 271.897 21.168 272.266 21.712 272.651C22.2673 273.036 22.7717 273.422 23.225 273.807C23.6897 274.192 24.0693 274.561 24.364 274.912L23.599 275.983C23.3043 275.632 22.9303 275.263 22.477 274.878C22.035 274.481 21.542 274.085 20.998 273.688C20.454 273.28 19.893 272.895 19.315 272.532C18.737 272.158 18.1703 271.818 17.615 271.512ZM22.698 265.188H22.919L23.14 265.171L23.939 265.324C23.7577 267.602 23.4063 269.529 22.885 271.104C22.3637 272.679 21.6723 273.971 20.811 274.98C19.961 275.977 18.941 276.776 17.751 277.377C17.6717 277.218 17.5583 277.037 17.411 276.833C17.2637 276.629 17.122 276.459 16.986 276.323C18.0627 275.847 18.9977 275.144 19.791 274.215C20.5957 273.286 21.2417 272.101 21.729 270.662C22.2163 269.211 22.5393 267.477 22.698 265.46V265.188ZM38.78 263.369H49.371V264.593H38.78V263.369ZM46.838 263.828H48.113V275.609C48.113 276.051 48.0507 276.385 47.926 276.612C47.8013 276.839 47.5803 277.009 47.263 277.122C46.957 277.213 46.5207 277.269 45.954 277.292C45.3873 277.326 44.6847 277.343 43.846 277.343C43.8233 277.15 43.7667 276.929 43.676 276.68C43.5853 276.431 43.489 276.21 43.387 276.017C43.8403 276.028 44.271 276.04 44.679 276.051C45.087 276.062 45.4383 276.062 45.733 276.051C46.039 276.051 46.2543 276.045 46.379 276.034C46.5603 276.034 46.6793 276.006 46.736 275.949C46.804 275.881 46.838 275.762 46.838 275.592V263.828ZM39.273 266.99H40.48V274.062H39.273V266.99ZM39.834 266.99H44.611V272.872H39.834V271.75H43.421V268.129H39.834V266.99ZM37.539 261.737L38.729 262.094C38.389 263.046 37.9867 263.987 37.522 264.916C37.0687 265.834 36.57 266.701 36.026 267.517C35.4933 268.333 34.938 269.064 34.36 269.71C34.3147 269.608 34.2467 269.478 34.156 269.319C34.0767 269.16 33.986 269.002 33.884 268.843C33.7933 268.673 33.7083 268.543 33.629 268.452C34.1617 267.897 34.666 267.262 35.142 266.548C35.6293 265.823 36.077 265.052 36.485 264.236C36.893 263.42 37.2443 262.587 37.539 261.737ZM35.941 266.174L37.182 264.916L37.199 264.933V277.343H35.941V266.174ZM54.233 267.483V274.793H52.992V268.673H50.765V267.483H54.233ZM51.411 262.536L52.397 261.907C52.6917 262.213 52.992 262.547 53.298 262.91C53.6153 263.273 53.91 263.635 54.182 263.998C54.4653 264.349 54.6863 264.661 54.845 264.933L53.791 265.647C53.6437 265.375 53.434 265.058 53.162 264.695C52.9013 264.332 52.618 263.964 52.312 263.59C52.006 263.205 51.7057 262.853 51.411 262.536ZM53.553 273.892C53.8363 273.892 54.1083 274.005 54.369 274.232C54.641 274.459 55.0263 274.731 55.525 275.048C56.0917 275.411 56.749 275.643 57.497 275.745C58.2563 275.847 59.1347 275.898 60.132 275.898C60.6533 275.898 61.1973 275.892 61.764 275.881C62.342 275.858 62.9143 275.83 63.481 275.796C64.059 275.762 64.6087 275.728 65.13 275.694C65.6513 275.649 66.1273 275.603 66.558 275.558C66.5013 275.671 66.4447 275.819 66.388 276C66.3313 276.17 66.2803 276.34 66.235 276.51C66.1897 276.691 66.1613 276.85 66.15 276.986C65.844 277.009 65.4417 277.031 64.943 277.054C64.4443 277.077 63.9003 277.094 63.311 277.105C62.733 277.128 62.155 277.145 61.577 277.156C61.0103 277.167 60.5117 277.173 60.081 277.173C58.9703 277.173 58.0353 277.105 57.276 276.969C56.5167 276.844 55.8253 276.589 55.202 276.204C54.8507 275.966 54.5277 275.728 54.233 275.49C53.9497 275.252 53.7173 275.133 53.536 275.133C53.366 275.133 53.1677 275.241 52.941 275.456C52.7143 275.66 52.4763 275.932 52.227 276.272C51.9777 276.623 51.7227 276.997 51.462 277.394L50.51 276.153C51.0653 275.496 51.6037 274.957 52.125 274.538C52.6577 274.107 53.1337 273.892 53.553 273.892ZM60.574 265.528H61.883V275.456H60.574V265.528ZM55.372 271.138H65.997V272.328H55.372V271.138ZM55.508 263.488H65.691V264.61H55.508V263.488ZM56.392 269.064V268.01L57.157 267.619H65.198L65.181 268.809H57.956C57.548 268.809 57.2023 268.832 56.919 268.877C56.647 268.922 56.4713 268.985 56.392 269.064ZM56.392 269.064C56.3807 268.973 56.3467 268.854 56.29 268.707C56.2447 268.548 56.1937 268.39 56.137 268.231C56.0803 268.072 56.0293 267.936 55.984 267.823C56.1313 267.789 56.2787 267.676 56.426 267.483C56.5733 267.279 56.732 267.024 56.902 266.718C56.9927 266.571 57.1173 266.327 57.276 265.987C57.4347 265.647 57.6103 265.25 57.803 264.797C58.007 264.332 58.2053 263.839 58.398 263.318C58.5907 262.785 58.7607 262.253 58.908 261.72L60.234 262.077C59.9733 262.825 59.6843 263.579 59.367 264.338C59.061 265.086 58.7323 265.8 58.381 266.48C58.041 267.16 57.701 267.772 57.361 268.316V268.35C57.361 268.35 57.31 268.373 57.208 268.418C57.1173 268.463 57.004 268.526 56.868 268.605C56.7433 268.673 56.63 268.752 56.528 268.843C56.4373 268.922 56.392 268.996 56.392 269.064ZM74.446 263.301H82.045V264.389H74.446V263.301ZM77.523 261.72H78.781V266.429H77.523V261.72ZM75.058 268.316L75.653 267.687C76.027 267.88 76.418 268.118 76.826 268.401C77.234 268.684 77.5457 268.945 77.761 269.183L77.149 269.897C76.9223 269.659 76.6107 269.393 76.214 269.098C75.8173 268.803 75.432 268.543 75.058 268.316ZM73.817 269.863L74.429 269.2C74.8143 269.404 75.2167 269.659 75.636 269.965C76.0553 270.26 76.384 270.532 76.622 270.781L75.993 271.512C75.7777 271.263 75.4603 270.985 75.041 270.679C74.6217 270.362 74.2137 270.09 73.817 269.863ZM73.817 265.919H81.994V267.024H73.817V265.919ZM81.722 265.919H81.909L82.113 265.868L82.929 266.072C82.7477 266.639 82.555 267.217 82.351 267.806C82.147 268.395 81.943 268.894 81.739 269.302L80.719 269.03C80.889 268.656 81.0647 268.197 81.246 267.653C81.4387 267.109 81.5973 266.593 81.722 266.106V265.919ZM73.46 271.733H82.963V272.855H73.46V271.733ZM78.016 267.687H79.206V269.744C79.206 270.367 79.1493 271.019 79.036 271.699C78.9227 272.379 78.6903 273.059 78.339 273.739C77.9877 274.408 77.455 275.054 76.741 275.677C76.0383 276.3 75.0863 276.873 73.885 277.394C73.8397 277.292 73.7717 277.184 73.681 277.071C73.6017 276.958 73.511 276.844 73.409 276.731C73.307 276.618 73.2163 276.521 73.137 276.442C74.2477 275.977 75.126 275.467 75.772 274.912C76.4293 274.357 76.9167 273.779 77.234 273.178C77.5627 272.577 77.7723 271.982 77.863 271.393C77.965 270.804 78.016 270.243 78.016 269.71V267.687ZM78.713 274.215L79.495 273.518C79.937 273.813 80.396 274.141 80.872 274.504C81.3593 274.867 81.8127 275.235 82.232 275.609C82.6627 275.972 83.0083 276.3 83.269 276.595L82.436 277.394C82.1867 277.099 81.8523 276.759 81.433 276.374C81.0137 276 80.566 275.626 80.09 275.252C79.6253 274.867 79.1663 274.521 78.713 274.215ZM68.156 272.906C68.1333 272.827 68.0993 272.719 68.054 272.583C68.0087 272.447 67.9577 272.311 67.901 272.175C67.8557 272.028 67.816 271.909 67.782 271.818C67.952 271.773 68.1333 271.648 68.326 271.444C68.53 271.24 68.7567 270.979 69.006 270.662C69.142 270.503 69.3347 270.248 69.584 269.897C69.8447 269.546 70.1337 269.126 70.451 268.639C70.7797 268.14 71.1083 267.608 71.437 267.041C71.7657 266.474 72.0603 265.902 72.321 265.324L73.324 265.902C72.712 267.069 72.0263 268.214 71.267 269.336C70.5077 270.447 69.7427 271.421 68.972 272.26V272.294C68.972 272.294 68.9323 272.317 68.853 272.362C68.7737 272.396 68.6773 272.447 68.564 272.515C68.4507 272.572 68.3543 272.634 68.275 272.702C68.1957 272.77 68.156 272.838 68.156 272.906ZM68.156 272.906L68.054 271.835L68.632 271.393L72.95 270.322C72.95 270.492 72.9557 270.685 72.967 270.9C72.9783 271.104 72.9953 271.268 73.018 271.393C72.0207 271.665 71.216 271.886 70.604 272.056C70.0033 272.226 69.5387 272.362 69.21 272.464C68.8813 272.566 68.6433 272.651 68.496 272.719C68.3487 272.787 68.2353 272.849 68.156 272.906ZM68.037 268.809C68.0143 268.73 67.9803 268.622 67.935 268.486C67.8897 268.339 67.8387 268.191 67.782 268.044C67.7367 267.897 67.6913 267.772 67.646 267.67C67.7933 267.636 67.9463 267.528 68.105 267.347C68.2637 267.154 68.4337 266.911 68.615 266.616C68.7057 266.469 68.8417 266.231 69.023 265.902C69.2157 265.573 69.4253 265.188 69.652 264.746C69.8787 264.293 70.1053 263.811 70.332 263.301C70.5587 262.78 70.757 262.264 70.927 261.754L72.032 262.264C71.7487 262.967 71.4313 263.675 71.08 264.389C70.7287 265.092 70.3547 265.766 69.958 266.412C69.5613 267.047 69.1647 267.625 68.768 268.146V268.18C68.768 268.18 68.7283 268.203 68.649 268.248C68.581 268.282 68.496 268.333 68.394 268.401C68.3033 268.469 68.2183 268.543 68.139 268.622C68.071 268.69 68.037 268.752 68.037 268.809ZM68.037 268.809L68.003 267.891L68.598 267.5L71.539 267.211C71.5163 267.358 71.4937 267.534 71.471 267.738C71.4597 267.942 71.454 268.106 71.454 268.231C70.7853 268.31 70.2413 268.384 69.822 268.452C69.414 268.509 69.091 268.56 68.853 268.605C68.615 268.639 68.4337 268.673 68.309 268.707C68.1957 268.741 68.105 268.775 68.037 268.809ZM67.731 275.014C68.3883 274.799 69.176 274.527 70.094 274.198C71.0233 273.869 71.9697 273.535 72.933 273.195L73.137 274.249C72.2417 274.589 71.3463 274.929 70.451 275.269C69.5557 275.609 68.7453 275.921 68.02 276.204L67.731 275.014ZM98.654 261.822L99.385 262.774C98.807 262.899 98.1553 263.018 97.43 263.131C96.716 263.233 95.9567 263.329 95.152 263.42C94.3587 263.499 93.5597 263.567 92.755 263.624C91.9503 263.669 91.1683 263.709 90.409 263.743C90.3977 263.607 90.358 263.448 90.29 263.267C90.2333 263.074 90.171 262.916 90.103 262.791C90.851 262.757 91.616 262.712 92.398 262.655C93.1913 262.587 93.9677 262.513 94.727 262.434C95.4977 262.355 96.2173 262.264 96.886 262.162C97.566 262.06 98.1553 261.947 98.654 261.822ZM89.916 266.157H100.099V267.228H89.916V266.157ZM94.336 262.825H95.509V270.407H94.336V262.825ZM94.336 271.223H95.441V276.238H94.336V271.223ZM91.208 264.151L92.228 263.828C92.4093 264.145 92.5963 264.485 92.789 264.848C92.993 265.211 93.1403 265.517 93.231 265.766L92.16 266.157C92.0693 265.896 91.9333 265.579 91.752 265.205C91.5707 264.82 91.3893 264.468 91.208 264.151ZM97.753 263.522L98.875 263.862C98.6257 264.361 98.3593 264.871 98.076 265.392C97.804 265.902 97.5433 266.338 97.294 266.701L96.359 266.378C96.5177 266.117 96.682 265.823 96.852 265.494C97.0333 265.154 97.2033 264.814 97.362 264.474C97.5207 264.123 97.651 263.805 97.753 263.522ZM93.639 266.735L94.659 267.109C94.319 267.687 93.894 268.242 93.384 268.775C92.874 269.308 92.3187 269.789 91.718 270.22C91.1287 270.651 90.5393 271.008 89.95 271.291C89.8593 271.155 89.7347 270.991 89.576 270.798C89.4173 270.605 89.27 270.452 89.134 270.339C89.712 270.124 90.2843 269.829 90.851 269.455C91.4177 269.07 91.9447 268.645 92.432 268.18C92.9307 267.715 93.333 267.234 93.639 266.735ZM96.24 266.735C96.5573 267.188 96.954 267.636 97.43 268.078C97.906 268.52 98.416 268.922 98.96 269.285C99.5153 269.636 100.059 269.925 100.592 270.152C100.467 270.254 100.326 270.401 100.167 270.594C100.008 270.775 99.878 270.945 99.776 271.104C99.232 270.832 98.6767 270.486 98.11 270.067C97.5433 269.648 97.0107 269.189 96.512 268.69C96.0133 268.18 95.594 267.659 95.254 267.126L96.24 266.735ZM90.885 270.781H99.215V277.241H98.025V271.767H92.024V277.343H90.885V270.781ZM91.633 273.195H98.382V274.147H91.633V273.195ZM91.633 275.626H98.348V276.595H91.633V275.626ZM84.476 270.662C85.122 270.447 85.904 270.175 86.822 269.846C87.74 269.517 88.6693 269.177 89.61 268.826L89.831 269.982C88.947 270.322 88.0573 270.662 87.162 271.002C86.278 271.331 85.4733 271.631 84.748 271.903L84.476 270.662ZM84.714 265.154H89.865V266.344H84.714V265.154ZM86.839 261.737H88.029V275.881C88.029 276.221 87.9837 276.487 87.893 276.68C87.8137 276.873 87.6663 277.02 87.451 277.122C87.247 277.224 86.975 277.292 86.635 277.326C86.295 277.36 85.853 277.371 85.309 277.36C85.2977 277.213 85.2523 277.02 85.173 276.782C85.105 276.555 85.0313 276.351 84.952 276.17C85.3147 276.181 85.6433 276.187 85.938 276.187C86.244 276.198 86.448 276.198 86.55 276.187C86.652 276.187 86.7257 276.164 86.771 276.119C86.8163 276.085 86.839 276.006 86.839 275.881V261.737ZM101.748 264.474H109.296V265.664H101.748V264.474ZM104.502 267.925H107.766V269.115H104.502V267.925ZM104.859 261.754H106.117V265.035H104.859V261.754ZM107.324 267.925H108.531C108.531 267.925 108.531 267.965 108.531 268.044C108.531 268.112 108.531 268.191 108.531 268.282C108.531 268.373 108.525 268.452 108.514 268.52C108.491 269.937 108.463 271.138 108.429 272.124C108.395 273.099 108.355 273.903 108.31 274.538C108.265 275.161 108.202 275.643 108.123 275.983C108.055 276.323 107.964 276.567 107.851 276.714C107.715 276.907 107.568 277.037 107.409 277.105C107.262 277.184 107.069 277.241 106.831 277.275C106.627 277.298 106.355 277.309 106.015 277.309C105.686 277.309 105.341 277.303 104.978 277.292C104.967 277.111 104.933 276.907 104.876 276.68C104.819 276.453 104.74 276.261 104.638 276.102C104.989 276.125 105.312 276.142 105.607 276.153C105.913 276.164 106.128 276.17 106.253 276.17C106.378 276.17 106.48 276.153 106.559 276.119C106.638 276.096 106.712 276.034 106.78 275.932C106.882 275.796 106.967 275.467 107.035 274.946C107.103 274.425 107.16 273.626 107.205 272.549C107.25 271.461 107.29 270.01 107.324 268.197V267.925ZM110.894 264.899H117.354V266.089H110.894V264.899ZM111.285 261.703L112.594 261.907C112.401 262.972 112.163 264.009 111.88 265.018C111.597 266.027 111.268 266.967 110.894 267.84C110.531 268.701 110.118 269.461 109.653 270.118C109.574 270.039 109.466 269.948 109.33 269.846C109.205 269.744 109.069 269.642 108.922 269.54C108.786 269.438 108.667 269.353 108.565 269.285C109.018 268.684 109.415 267.982 109.755 267.177C110.106 266.372 110.407 265.505 110.656 264.576C110.917 263.635 111.126 262.678 111.285 261.703ZM114.906 265.528L116.164 265.681C115.858 267.642 115.416 269.364 114.838 270.849C114.271 272.334 113.506 273.614 112.543 274.691C111.58 275.756 110.356 276.657 108.871 277.394C108.837 277.292 108.775 277.173 108.684 277.037C108.605 276.901 108.514 276.759 108.412 276.612C108.31 276.476 108.219 276.363 108.14 276.272C109.545 275.649 110.696 274.85 111.591 273.875C112.498 272.889 113.212 271.705 113.733 270.322C114.266 268.939 114.657 267.341 114.906 265.528ZM111.404 265.987C111.687 267.551 112.078 269.013 112.577 270.373C113.087 271.722 113.744 272.9 114.549 273.909C115.354 274.918 116.328 275.694 117.473 276.238C117.382 276.317 117.275 276.419 117.15 276.544C117.037 276.68 116.929 276.81 116.827 276.935C116.736 277.071 116.657 277.201 116.589 277.326C115.388 276.691 114.373 275.836 113.546 274.759C112.73 273.671 112.061 272.402 111.54 270.951C111.019 269.489 110.599 267.902 110.282 266.191L111.404 265.987ZM103.754 265.052H104.978V269.217C104.978 270.146 104.916 271.087 104.791 272.039C104.678 272.98 104.434 273.898 104.06 274.793C103.697 275.688 103.136 276.538 102.377 277.343C102.264 277.207 102.116 277.06 101.935 276.901C101.754 276.754 101.584 276.623 101.425 276.51C102.116 275.773 102.626 274.997 102.955 274.181C103.295 273.354 103.51 272.521 103.601 271.682C103.703 270.832 103.754 270.005 103.754 269.2V265.052ZM131.124 267.738H132.433V273.416C132.433 273.801 132.382 274.107 132.28 274.334C132.178 274.549 131.968 274.714 131.651 274.827C131.334 274.929 130.903 274.991 130.359 275.014C129.826 275.025 129.158 275.031 128.353 275.031C128.33 274.827 128.279 274.6 128.2 274.351C128.132 274.102 128.053 273.886 127.962 273.705C128.381 273.716 128.778 273.728 129.152 273.739C129.526 273.739 129.849 273.739 130.121 273.739C130.393 273.728 130.586 273.722 130.699 273.722C130.858 273.711 130.965 273.682 131.022 273.637C131.09 273.592 131.124 273.507 131.124 273.382V267.738ZM124.12 268.486H125.463V277.326H124.12V268.486ZM119.666 267.738H131.685V268.962H119.666V267.738ZM118.935 263.641H134.082V264.865H118.935V263.641ZM122.913 261.72H124.222V266.82H122.913V261.72ZM128.778 261.72H130.104V266.82H128.778V261.72ZM138.57 266.786H148.396V268.01H138.57V266.786ZM138.57 270.815H148.396V272.039H138.57V270.815ZM138.57 274.861H148.396V276.102H138.57V274.861ZM137.686 262.774H149.229V277.258H147.903V264.032H138.961V277.258H137.686V262.774ZM159.565 271.886C159.474 271.421 159.491 271.002 159.616 270.628C159.752 270.254 159.95 269.92 160.211 269.625C160.483 269.319 160.778 269.041 161.095 268.792C161.424 268.531 161.735 268.276 162.03 268.027C162.325 267.778 162.568 267.523 162.761 267.262C162.954 266.99 163.05 266.695 163.05 266.378C163.05 265.981 162.954 265.63 162.761 265.324C162.568 265.018 162.285 264.78 161.911 264.61C161.537 264.429 161.055 264.338 160.466 264.338C159.888 264.338 159.327 264.468 158.783 264.729C158.25 264.978 157.74 265.364 157.253 265.885L156.335 265.035C156.902 264.434 157.531 263.958 158.222 263.607C158.913 263.244 159.718 263.063 160.636 263.063C161.441 263.063 162.132 263.193 162.71 263.454C163.299 263.715 163.753 264.083 164.07 264.559C164.399 265.024 164.563 265.585 164.563 266.242C164.563 266.673 164.467 267.052 164.274 267.381C164.081 267.71 163.832 268.01 163.526 268.282C163.231 268.554 162.92 268.82 162.591 269.081C162.262 269.33 161.956 269.591 161.673 269.863C161.401 270.135 161.191 270.435 161.044 270.764C160.908 271.093 160.88 271.467 160.959 271.886H159.565ZM160.296 276.085C159.99 276.085 159.729 275.983 159.514 275.779C159.299 275.575 159.191 275.303 159.191 274.963C159.191 274.623 159.299 274.351 159.514 274.147C159.729 273.932 159.99 273.824 160.296 273.824C160.591 273.824 160.846 273.932 161.061 274.147C161.276 274.351 161.384 274.623 161.384 274.963C161.384 275.303 161.276 275.575 161.061 275.779C160.846 275.983 160.591 276.085 160.296 276.085Z" fill="black" fill-opacity="0.9" shape-rendering="crispEdges"/>
</g>
<rect width="150" height="56" transform="translate(225 244)" fill="white"/>
<path fill-rule="evenodd" clip-rule="evenodd" d="M343.454 266.581L344.515 265.52L350.293 271.298C350.684 271.689 350.684 272.322 350.293 272.712L344.515 278.491L343.454 277.43L348.879 272.005L343.454 266.581Z" fill="black" fill-opacity="0.3"/>
<mask id="mask1_328_540" style="mask-type:luminance" maskUnits="userSpaceOnUse" x="343" y="265" width="8" height="14">
<path fill-rule="evenodd" clip-rule="evenodd" d="M343.454 266.581L344.515 265.52L350.293 271.298C350.684 271.689 350.684 272.322 350.293 272.712L344.515 278.491L343.454 277.43L348.879 272.005L343.454 266.581Z" fill="white"/>
</mask>
<g mask="url(#mask1_328_540)">
</g>
<rect x="16" y="299.5" width="343" height="0.5" fill="black" fill-opacity="0.1"/>
<rect width="375" height="56" transform="translate(0 189)" fill="white"/>
<rect width="340" height="56" transform="translate(0 189)" fill="white"/>
<g filter="url(#filter2_d_328_540)">
<path d="M25.741 219.436H31.045V220.643H25.741V219.436ZM25.044 208.556H31.708V221.663H30.433V209.763H26.268V221.935H25.044V208.556ZM16.748 210.188H23.055V211.429H16.748V210.188ZM19.621 206.703L20.879 206.856C20.6863 207.706 20.471 208.613 20.233 209.576C20.0063 210.539 19.7683 211.514 19.519 212.5C19.281 213.475 19.0373 214.41 18.788 215.305C18.55 216.189 18.329 216.982 18.125 217.685L17.037 217.158C17.241 216.512 17.4563 215.758 17.683 214.897C17.921 214.036 18.1533 213.129 18.38 212.177C18.618 211.225 18.8447 210.279 19.06 209.338C19.2753 208.397 19.4623 207.519 19.621 206.703ZM17.615 216.512L18.312 215.594C18.8673 215.877 19.434 216.195 20.012 216.546C20.6013 216.897 21.168 217.266 21.712 217.651C22.2673 218.036 22.7717 218.422 23.225 218.807C23.6897 219.192 24.0693 219.561 24.364 219.912L23.599 220.983C23.3043 220.632 22.9303 220.263 22.477 219.878C22.035 219.481 21.542 219.085 20.998 218.688C20.454 218.28 19.893 217.895 19.315 217.532C18.737 217.158 18.1703 216.818 17.615 216.512ZM22.698 210.188H22.919L23.14 210.171L23.939 210.324C23.7577 212.602 23.4063 214.529 22.885 216.104C22.3637 217.679 21.6723 218.971 20.811 219.98C19.961 220.977 18.941 221.776 17.751 222.377C17.6717 222.218 17.5583 222.037 17.411 221.833C17.2637 221.629 17.122 221.459 16.986 221.323C18.0627 220.847 18.9977 220.144 19.791 219.215C20.5957 218.286 21.2417 217.101 21.729 215.662C22.2163 214.211 22.5393 212.477 22.698 210.46V210.188ZM38.78 208.369H49.371V209.593H38.78V208.369ZM46.838 208.828H48.113V220.609C48.113 221.051 48.0507 221.385 47.926 221.612C47.8013 221.839 47.5803 222.009 47.263 222.122C46.957 222.213 46.5207 222.269 45.954 222.292C45.3873 222.326 44.6847 222.343 43.846 222.343C43.8233 222.15 43.7667 221.929 43.676 221.68C43.5853 221.431 43.489 221.21 43.387 221.017C43.8403 221.028 44.271 221.04 44.679 221.051C45.087 221.062 45.4383 221.062 45.733 221.051C46.039 221.051 46.2543 221.045 46.379 221.034C46.5603 221.034 46.6793 221.006 46.736 220.949C46.804 220.881 46.838 220.762 46.838 220.592V208.828ZM39.273 211.99H40.48V219.062H39.273V211.99ZM39.834 211.99H44.611V217.872H39.834V216.75H43.421V213.129H39.834V211.99ZM37.539 206.737L38.729 207.094C38.389 208.046 37.9867 208.987 37.522 209.916C37.0687 210.834 36.57 211.701 36.026 212.517C35.4933 213.333 34.938 214.064 34.36 214.71C34.3147 214.608 34.2467 214.478 34.156 214.319C34.0767 214.16 33.986 214.002 33.884 213.843C33.7933 213.673 33.7083 213.543 33.629 213.452C34.1617 212.897 34.666 212.262 35.142 211.548C35.6293 210.823 36.077 210.052 36.485 209.236C36.893 208.42 37.2443 207.587 37.539 206.737ZM35.941 211.174L37.182 209.916L37.199 209.933V222.343H35.941V211.174ZM57.99 212.228H64.977V213.503H57.99V212.228ZM50.867 220.269H66.15V221.544H50.867V220.269ZM57.259 206.975H58.602V220.949H57.259V206.975ZM71.522 206.788L72.729 207.145C72.355 208.108 71.9187 209.06 71.42 210.001C70.9213 210.93 70.383 211.809 69.805 212.636C69.227 213.463 68.632 214.194 68.02 214.829C67.9747 214.727 67.9123 214.597 67.833 214.438C67.7537 214.279 67.663 214.121 67.561 213.962C67.4703 213.792 67.3853 213.662 67.306 213.571C67.8613 213.016 68.3997 212.375 68.921 211.65C69.4423 210.925 69.924 210.148 70.366 209.321C70.8193 208.482 71.2047 207.638 71.522 206.788ZM69.72 211.157L70.927 209.933L70.944 209.95V222.326H69.72V211.157ZM75.058 215.135H81.365V216.325H75.058V215.135ZM80.94 215.135H81.178L81.382 215.05L82.283 215.611C81.8863 216.076 81.4387 216.591 80.94 217.158C80.4413 217.725 79.9257 218.297 79.393 218.875C78.8717 219.442 78.3673 219.991 77.88 220.524L76.826 219.878C77.3133 219.368 77.8177 218.83 78.339 218.263C78.8603 217.696 79.3477 217.152 79.801 216.631C80.2657 216.098 80.6453 215.651 80.94 215.288V215.135ZM76.741 206.805L77.999 206.975C77.8063 207.734 77.5967 208.539 77.37 209.389C77.1433 210.228 76.911 211.072 76.673 211.922C76.435 212.772 76.2027 213.577 75.976 214.336C75.7493 215.095 75.5397 215.758 75.347 216.325H73.987C74.2023 215.724 74.4347 215.033 74.684 214.251C74.9333 213.469 75.177 212.647 75.415 211.786C75.6643 210.925 75.9023 210.069 76.129 209.219C76.3557 208.358 76.5597 207.553 76.741 206.805ZM72.916 208.692H82.436V209.882H72.916V208.692ZM71.947 211.905H83.218V213.112H71.947V211.905ZM74.956 218.875L75.891 218.093C76.435 218.422 76.9903 218.784 77.557 219.181C78.135 219.578 78.6677 219.969 79.155 220.354C79.6537 220.739 80.0617 221.091 80.379 221.408L79.427 222.36C79.121 222.031 78.7187 221.657 78.22 221.238C77.7213 220.83 77.1887 220.416 76.622 219.997C76.0553 219.578 75.5 219.204 74.956 218.875ZM97.124 212.738H98.433V218.416C98.433 218.801 98.382 219.107 98.28 219.334C98.178 219.549 97.9683 219.714 97.651 219.827C97.3337 219.929 96.903 219.991 96.359 220.014C95.8263 220.025 95.1577 220.031 94.353 220.031C94.3303 219.827 94.2793 219.6 94.2 219.351C94.132 219.102 94.0527 218.886 93.962 218.705C94.3813 218.716 94.778 218.728 95.152 218.739C95.526 218.739 95.849 218.739 96.121 218.739C96.393 218.728 96.5857 218.722 96.699 218.722C96.8577 218.711 96.9653 218.682 97.022 218.637C97.09 218.592 97.124 218.507 97.124 218.382V212.738ZM90.12 213.486H91.463V222.326H90.12V213.486ZM85.666 212.738H97.685V213.962H85.666V212.738ZM84.935 208.641H100.082V209.865H84.935V208.641ZM88.913 206.72H90.222V211.82H88.913V206.72ZM94.778 206.72H96.104V211.82H94.778V206.72ZM104.57 211.786H114.396V213.01H104.57V211.786ZM104.57 215.815H114.396V217.039H104.57V215.815ZM104.57 219.861H114.396V221.102H104.57V219.861ZM103.686 207.774H115.229V222.258H113.903V209.032H104.961V222.258H103.686V207.774ZM125.565 216.886C125.474 216.421 125.491 216.002 125.616 215.628C125.752 215.254 125.95 214.92 126.211 214.625C126.483 214.319 126.778 214.041 127.095 213.792C127.424 213.531 127.735 213.276 128.03 213.027C128.325 212.778 128.568 212.523 128.761 212.262C128.954 211.99 129.05 211.695 129.05 211.378C129.05 210.981 128.954 210.63 128.761 210.324C128.568 210.018 128.285 209.78 127.911 209.61C127.537 209.429 127.055 209.338 126.466 209.338C125.888 209.338 125.327 209.468 124.783 209.729C124.25 209.978 123.74 210.364 123.253 210.885L122.335 210.035C122.902 209.434 123.531 208.958 124.222 208.607C124.913 208.244 125.718 208.063 126.636 208.063C127.441 208.063 128.132 208.193 128.71 208.454C129.299 208.715 129.753 209.083 130.07 209.559C130.399 210.024 130.563 210.585 130.563 211.242C130.563 211.673 130.467 212.052 130.274 212.381C130.081 212.71 129.832 213.01 129.526 213.282C129.231 213.554 128.92 213.82 128.591 214.081C128.262 214.33 127.956 214.591 127.673 214.863C127.401 215.135 127.191 215.435 127.044 215.764C126.908 216.093 126.88 216.467 126.959 216.886H125.565ZM126.296 221.085C125.99 221.085 125.729 220.983 125.514 220.779C125.299 220.575 125.191 220.303 125.191 219.963C125.191 219.623 125.299 219.351 125.514 219.147C125.729 218.932 125.99 218.824 126.296 218.824C126.591 218.824 126.846 218.932 127.061 219.147C127.276 219.351 127.384 219.623 127.384 219.963C127.384 220.303 127.276 220.575 127.061 220.779C126.846 220.983 126.591 221.085 126.296 221.085Z" fill="black" fill-opacity="0.9" shape-rendering="crispEdges"/>
</g>
<rect width="150" height="56" transform="translate(225 189)" fill="white"/>
<path fill-rule="evenodd" clip-rule="evenodd" d="M343.454 211.581L344.515 210.52L350.293 216.298C350.684 216.689 350.684 217.322 350.293 217.712L344.515 223.491L343.454 222.43L348.879 217.005L343.454 211.581Z" fill="black" fill-opacity="0.3"/>
<mask id="mask2_328_540" style="mask-type:luminance" maskUnits="userSpaceOnUse" x="343" y="210" width="8" height="14">
<path fill-rule="evenodd" clip-rule="evenodd" d="M343.454 211.581L344.515 210.52L350.293 216.298C350.684 216.689 350.684 217.322 350.293 217.712L344.515 223.491L343.454 222.43L348.879 217.005L343.454 211.581Z" fill="white"/>
</mask>
<g mask="url(#mask2_328_540)">
</g>
<rect x="16" y="244.5" width="343" height="0.5" fill="black" fill-opacity="0.1"/>
<path d="M75 620C75 600.67 90.67 585 110 585H265C284.33 585 300 600.67 300 620C300 639.33 284.33 655 265 655H110C90.67 655 75 639.33 75 620Z" fill="#E4F0FF"/>
<path d="M164.701 615.256H172.606V616.429H164.701V615.256ZM164.276 619.523H173.252V620.713H164.276V619.523ZM167.812 616.14H169.087V618.503C169.087 619.138 169.042 619.835 168.951 620.594C168.872 621.342 168.685 622.113 168.39 622.906C168.107 623.699 167.665 624.493 167.064 625.286C166.463 626.068 165.653 626.805 164.633 627.496C164.531 627.36 164.384 627.201 164.191 627.02C164.01 626.85 163.834 626.708 163.664 626.595C164.65 625.972 165.421 625.303 165.976 624.589C166.543 623.875 166.956 623.155 167.217 622.43C167.478 621.705 167.642 621.008 167.71 620.339C167.778 619.659 167.812 619.041 167.812 618.486V616.14ZM168.968 620.526C169.331 621.841 169.886 623.008 170.634 624.028C171.393 625.048 172.323 625.802 173.422 626.289C173.331 626.368 173.229 626.47 173.116 626.595C173.014 626.72 172.912 626.844 172.81 626.969C172.719 627.105 172.64 627.23 172.572 627.343C171.416 626.742 170.447 625.875 169.665 624.742C168.883 623.597 168.288 622.283 167.88 620.798L168.968 620.526ZM170.77 611.992L172.079 612.383C171.75 612.961 171.393 613.556 171.008 614.168C170.634 614.769 170.277 615.284 169.937 615.715L168.883 615.358C169.098 615.052 169.325 614.706 169.563 614.321C169.801 613.924 170.028 613.522 170.243 613.114C170.458 612.706 170.634 612.332 170.77 611.992ZM165.245 612.502L166.282 611.992C166.633 612.377 166.973 612.814 167.302 613.301C167.631 613.777 167.869 614.202 168.016 614.576L166.928 615.154C166.769 614.791 166.531 614.361 166.214 613.862C165.908 613.352 165.585 612.899 165.245 612.502ZM157.799 612.451H164.191V613.607H157.799V612.451ZM159.431 616.021H162.729V617.092H159.431V616.021ZM159.431 619.523H162.729V620.611H159.431V619.523ZM158.717 613.029H159.873V623.909H158.717V613.029ZM162.321 613.029H163.443V627.36H162.321V613.029ZM157.646 623.705C158.235 623.626 158.915 623.529 159.686 623.416C160.468 623.291 161.295 623.161 162.168 623.025C163.041 622.889 163.913 622.753 164.786 622.617L164.854 623.722C163.619 623.926 162.383 624.136 161.148 624.351C159.924 624.566 158.842 624.759 157.901 624.929L157.646 623.705ZM178.556 622.753L179.865 623.229C179.514 623.694 179.106 624.158 178.641 624.623C178.188 625.088 177.712 625.524 177.213 625.932C176.726 626.34 176.255 626.697 175.802 627.003C175.723 626.912 175.609 626.81 175.462 626.697C175.326 626.595 175.184 626.487 175.037 626.374C174.89 626.272 174.759 626.193 174.646 626.136C175.133 625.853 175.615 625.53 176.091 625.167C176.567 624.804 177.02 624.419 177.451 624.011C177.882 623.592 178.25 623.172 178.556 622.753ZM184.914 623.382L185.934 622.685C186.421 623.025 186.931 623.405 187.464 623.824C188.008 624.243 188.518 624.663 188.994 625.082C189.481 625.49 189.878 625.853 190.184 626.17L189.079 626.986C188.784 626.657 188.405 626.283 187.94 625.864C187.487 625.433 186.988 625.003 186.444 624.572C185.911 624.141 185.401 623.745 184.914 623.382ZM176.21 616.633L177.077 615.834C177.598 616.129 178.137 616.457 178.692 616.82C179.247 617.183 179.769 617.557 180.256 617.942C180.755 618.316 181.163 618.667 181.48 618.996L180.545 619.897C180.25 619.58 179.859 619.228 179.372 618.843C178.896 618.446 178.38 618.055 177.825 617.67C177.27 617.273 176.731 616.928 176.21 616.633ZM185.084 618.809L186.121 618.146C186.62 618.531 187.135 618.968 187.668 619.455C188.201 619.942 188.699 620.43 189.164 620.917C189.64 621.393 190.02 621.824 190.303 622.209L189.181 622.974C188.909 622.589 188.546 622.152 188.093 621.665C187.64 621.166 187.152 620.668 186.631 620.169C186.11 619.67 185.594 619.217 185.084 618.809ZM181.803 621.189H183.146V627.36H181.803V621.189ZM174.952 620.679C175.768 620.679 176.703 620.673 177.757 620.662C178.811 620.639 179.927 620.622 181.106 620.611C182.296 620.588 183.52 620.566 184.778 620.543C186.036 620.509 187.277 620.481 188.501 620.458L188.433 621.614C186.835 621.671 185.22 621.722 183.588 621.767C181.956 621.801 180.409 621.835 178.947 621.869C177.485 621.903 176.193 621.937 175.071 621.971L174.952 620.679ZM185.339 614.508L186.563 615.171C186.042 615.715 185.481 616.282 184.88 616.871C184.279 617.449 183.656 618.021 183.01 618.588C182.364 619.143 181.724 619.676 181.089 620.186C180.466 620.685 179.876 621.132 179.321 621.529L178.335 620.883C178.902 620.486 179.497 620.033 180.12 619.523C180.755 619.002 181.389 618.458 182.024 617.891C182.659 617.313 183.259 616.735 183.826 616.157C184.393 615.579 184.897 615.029 185.339 614.508ZM180.936 613.369L182.16 613.981C181.831 614.389 181.469 614.808 181.072 615.239C180.687 615.67 180.296 616.083 179.899 616.48C179.514 616.877 179.145 617.222 178.794 617.517L177.774 616.956C178.125 616.65 178.494 616.293 178.879 615.885C179.264 615.466 179.638 615.035 180.001 614.593C180.364 614.151 180.675 613.743 180.936 613.369ZM188.042 611.958L188.96 613.046C188.099 613.205 187.141 613.352 186.087 613.488C185.033 613.613 183.922 613.726 182.755 613.828C181.588 613.919 180.409 613.998 179.219 614.066C178.04 614.123 176.896 614.162 175.785 614.185C175.774 614.015 175.734 613.822 175.666 613.607C175.609 613.38 175.547 613.188 175.479 613.029C176.578 612.995 177.706 612.95 178.862 612.893C180.029 612.825 181.174 612.751 182.296 612.672C183.418 612.581 184.472 612.479 185.458 612.366C186.444 612.241 187.305 612.105 188.042 611.958ZM197.392 614.729L198.769 614.984C198.191 615.811 197.46 616.616 196.576 617.398C195.703 618.169 194.644 618.866 193.397 619.489C193.329 619.387 193.244 619.279 193.142 619.166C193.051 619.041 192.949 618.928 192.836 618.826C192.723 618.724 192.621 618.639 192.53 618.571C193.709 618.05 194.706 617.443 195.522 616.752C196.349 616.061 196.973 615.386 197.392 614.729ZM197.205 616.004H203.138V617.007H196.287L197.205 616.004ZM202.764 616.004H203.019L203.24 615.936L204.107 616.463C203.54 617.358 202.815 618.169 201.931 618.894C201.058 619.608 200.089 620.243 199.024 620.798C197.959 621.342 196.848 621.812 195.692 622.209C194.536 622.606 193.386 622.929 192.241 623.178C192.184 623.008 192.094 622.815 191.969 622.6C191.844 622.373 191.725 622.192 191.612 622.056C192.7 621.852 193.799 621.574 194.91 621.223C196.021 620.86 197.08 620.435 198.089 619.948C199.109 619.449 200.021 618.888 200.826 618.265C201.642 617.642 202.288 616.956 202.764 616.208V616.004ZM196.712 616.786C197.381 617.636 198.259 618.384 199.347 619.03C200.435 619.676 201.665 620.214 203.036 620.645C204.419 621.064 205.864 621.37 207.371 621.563C207.28 621.665 207.184 621.79 207.082 621.937C206.98 622.073 206.884 622.215 206.793 622.362C206.702 622.509 206.623 622.645 206.555 622.77C205.036 622.532 203.586 622.175 202.203 621.699C200.82 621.212 199.562 620.605 198.429 619.88C197.307 619.143 196.366 618.282 195.607 617.296L196.712 616.786ZM194.825 622.124H204.26V627.326H202.968V623.195H196.066V627.343H194.825V622.124ZM195.437 625.694H203.614V626.765H195.437V625.694ZM198.803 611.72H200.112V613.947H198.803V611.72ZM192.309 613.267H206.691V616.463H205.382V614.423H193.55V616.463H192.309V613.267ZM210.346 612.349H214.307V613.539H210.346V612.349ZM210.346 616.327H214.341V617.517H210.346V616.327ZM216.976 618.18H223.164V619.353H216.976V618.18ZM210.312 620.39H214.307V621.597H210.312V620.39ZM209.836 612.349H210.992V618.452C210.992 619.121 210.975 619.84 210.941 620.611C210.907 621.382 210.845 622.169 210.754 622.974C210.663 623.767 210.527 624.544 210.346 625.303C210.165 626.062 209.921 626.754 209.615 627.377C209.547 627.309 209.451 627.235 209.326 627.156C209.201 627.077 209.071 627.003 208.935 626.935C208.799 626.867 208.68 626.816 208.578 626.782C208.873 626.181 209.099 625.53 209.258 624.827C209.428 624.124 209.553 623.405 209.632 622.668C209.711 621.92 209.762 621.189 209.785 620.475C209.819 619.75 209.836 619.075 209.836 618.452V612.349ZM213.593 612.349H214.783V625.83C214.783 626.17 214.738 626.442 214.647 626.646C214.556 626.861 214.403 627.02 214.188 627.122C213.973 627.235 213.684 627.303 213.321 627.326C212.958 627.349 212.488 627.36 211.91 627.36C211.899 627.258 211.876 627.128 211.842 626.969C211.808 626.822 211.763 626.674 211.706 626.527C211.661 626.38 211.61 626.249 211.553 626.136C211.95 626.147 212.307 626.153 212.624 626.153C212.941 626.153 213.157 626.147 213.27 626.136C213.383 626.136 213.463 626.113 213.508 626.068C213.565 626.023 213.593 625.938 213.593 625.813V612.349ZM222.263 612.4H223.504V615.698C223.504 616.004 223.459 616.248 223.368 616.429C223.277 616.61 223.096 616.752 222.824 616.854C222.563 616.933 222.212 616.984 221.77 617.007C221.328 617.018 220.784 617.024 220.138 617.024C220.115 616.843 220.059 616.656 219.968 616.463C219.889 616.259 219.809 616.083 219.73 615.936C220.081 615.936 220.404 615.942 220.699 615.953C221.005 615.964 221.266 615.97 221.481 615.97C221.696 615.959 221.849 615.953 221.94 615.953C222.076 615.942 222.161 615.919 222.195 615.885C222.24 615.851 222.263 615.783 222.263 615.681V612.4ZM222.807 618.18H223.028L223.249 618.129L223.997 618.401C223.714 619.852 223.289 621.149 222.722 622.294C222.167 623.427 221.509 624.408 220.75 625.235C220.002 626.062 219.186 626.737 218.302 627.258C218.234 627.122 218.126 626.958 217.979 626.765C217.832 626.572 217.69 626.425 217.554 626.323C218.37 625.892 219.129 625.297 219.832 624.538C220.535 623.767 221.147 622.866 221.668 621.835C222.189 620.792 222.569 619.653 222.807 618.418V618.18ZM218.88 618.911C219.209 620.01 219.639 621.047 220.172 622.022C220.716 622.997 221.351 623.864 222.076 624.623C222.801 625.371 223.606 625.96 224.49 626.391C224.354 626.504 224.207 626.657 224.048 626.85C223.889 627.054 223.759 627.23 223.657 627.377C222.75 626.878 221.923 626.221 221.175 625.405C220.438 624.578 219.792 623.637 219.237 622.583C218.682 621.518 218.223 620.384 217.86 619.183L218.88 618.911ZM216.279 612.4H222.62V613.59H217.486V627.36H216.279V612.4Z" fill="black"/>
<defs>
<filter id="filter0_d_328_540" x="12.748" y="150.703" width="121.815" height="23.708" filterUnits="userSpaceOnUse" color-interpolation-filters="sRGB">
<feFlood flood-opacity="0" result="BackgroundImageFix"/>
<feColorMatrix in="SourceAlpha" type="matrix" values="0 0 0 0 0 0 0 0 0 0 0 0 0 0 0 0 0 0 127 0" result="hardAlpha"/>
<feOffset dy="4"/>
<feGaussianBlur stdDeviation="2"/>
<feComposite in2="hardAlpha" operator="out"/>
<feColorMatrix type="matrix" values="0 0 0 0 0 0 0 0 0 0 0 0 0 0 0 0 0 0 0.25 0"/>
<feBlend mode="normal" in2="BackgroundImageFix" result="effect1_dropShadow_328_540"/>
<feBlend mode="normal" in="SourceGraphic" in2="effect1_dropShadow_328_540" result="shape"/>
</filter>
<filter id="filter1_d_328_540" x="12.748" y="261.703" width="155.815" height="23.691" filterUnits="userSpaceOnUse" color-interpolation-filters="sRGB">
<feFlood flood-opacity="0" result="BackgroundImageFix"/>
<feColorMatrix in="SourceAlpha" type="matrix" values="0 0 0 0 0 0 0 0 0 0 0 0 0 0 0 0 0 0 127 0" result="hardAlpha"/>
<feOffset dy="4"/>
<feGaussianBlur stdDeviation="2"/>
<feComposite in2="hardAlpha" operator="out"/>
<feColorMatrix type="matrix" values="0 0 0 0 0 0 0 0 0 0 0 0 0 0 0 0 0 0 0.25 0"/>
<feBlend mode="normal" in2="BackgroundImageFix" result="effect1_dropShadow_328_540"/>
<feBlend mode="normal" in="SourceGraphic" in2="effect1_dropShadow_328_540" result="shape"/>
</filter>
<filter id="filter2_d_328_540" x="12.748" y="206.703" width="121.815" height="23.674" filterUnits="userSpaceOnUse" color-interpolation-filters="sRGB">
<feFlood flood-opacity="0" result="BackgroundImageFix"/>
<feColorMatrix in="SourceAlpha" type="matrix" values="0 0 0 0 0 0 0 0 0 0 0 0 0 0 0 0 0 0 127 0" result="hardAlpha"/>
<feOffset dy="4"/>
<feGaussianBlur stdDeviation="2"/>
<feComposite in2="hardAlpha" operator="out"/>
<feColorMatrix type="matrix" values="0 0 0 0 0 0 0 0 0 0 0 0 0 0 0 0 0 0 0.25 0"/>
<feBlend mode="normal" in2="BackgroundImageFix" result="effect1_dropShadow_328_540"/>
<feBlend mode="normal" in="SourceGraphic" in2="effect1_dropShadow_328_540" result="shape"/>
</filter>
</defs>
</svg>
